<?xml version="1.0" encoding="utf-8" standalone="no"?>
<!DOCTYPE svg PUBLIC "-//W3C//DTD SVG 1.1//EN"
  "http://www.w3.org/Graphics/SVG/1.1/DTD/svg11.dtd">
<svg xmlns:xlink="http://www.w3.org/1999/xlink" width="419.305pt" height="319.962pt" viewBox="0 0 419.305 319.962" xmlns="http://www.w3.org/2000/svg" version="1.1">
 <metadata>
  <rdf:RDF xmlns:dc="http://purl.org/dc/elements/1.1/" xmlns:cc="http://creativecommons.org/ns#" xmlns:rdf="http://www.w3.org/1999/02/22-rdf-syntax-ns#">
   <cc:Work>
    <dc:type rdf:resource="http://purl.org/dc/dcmitype/StillImage"/>
    <dc:date>2022-09-28T20:56:52.509914</dc:date>
    <dc:format>image/svg+xml</dc:format>
    <dc:creator>
     <cc:Agent>
      <dc:title>Matplotlib v3.5.2, https://matplotlib.org/</dc:title>
     </cc:Agent>
    </dc:creator>
   </cc:Work>
  </rdf:RDF>
 </metadata>
 <defs>
  <style type="text/css">*{stroke-linejoin: round; stroke-linecap: butt}</style>
 </defs>
 <g id="figure_1">
  <g id="patch_1">
   <path d="M 0 319.962 
L 419.305 319.962 
L 419.305 0 
L 0 0 
z
" style="fill: #ffffff"/>
  </g>
  <g id="axes_1">
   <g id="patch_2">
    <path d="M 54.985 273.312 
L 412.105 273.312 
L 412.105 7.2 
L 54.985 7.2 
z
" style="fill: #ffffff"/>
   </g>
   <g id="patch_3">
    <path d="M 71.217727 273.312 
L 75.176929 273.312 
L 75.176929 19.872 
L 71.217727 19.872 
z
" clip-path="url(#p295444a204)" style="fill: #1f77b4; fill-opacity: 0.75; stroke: #000000; stroke-width: 0.39592; stroke-linejoin: miter"/>
   </g>
   <g id="patch_4">
    <path d="M 75.176929 273.312 
L 79.136131 273.312 
L 79.136131 142.066286 
L 75.176929 142.066286 
z
" clip-path="url(#p295444a204)" style="fill: #1f77b4; fill-opacity: 0.75; stroke: #000000; stroke-width: 0.39592; stroke-linejoin: miter"/>
   </g>
   <g id="patch_5">
    <path d="M 79.136131 273.312 
L 83.095333 273.312 
L 83.095333 169.220571 
L 79.136131 169.220571 
z
" clip-path="url(#p295444a204)" style="fill: #1f77b4; fill-opacity: 0.75; stroke: #000000; stroke-width: 0.39592; stroke-linejoin: miter"/>
   </g>
   <g id="patch_6">
    <path d="M 83.095333 273.312 
L 87.054534 273.312 
L 87.054534 190.340571 
L 83.095333 190.340571 
z
" clip-path="url(#p295444a204)" style="fill: #1f77b4; fill-opacity: 0.75; stroke: #000000; stroke-width: 0.39592; stroke-linejoin: miter"/>
   </g>
   <g id="patch_7">
    <path d="M 87.054534 273.312 
L 91.013736 273.312 
L 91.013736 207.940571 
L 87.054534 207.940571 
z
" clip-path="url(#p295444a204)" style="fill: #1f77b4; fill-opacity: 0.75; stroke: #000000; stroke-width: 0.39592; stroke-linejoin: miter"/>
   </g>
   <g id="patch_8">
    <path d="M 91.013736 273.312 
L 94.972938 273.312 
L 94.972938 212.466286 
L 91.013736 212.466286 
z
" clip-path="url(#p295444a204)" style="fill: #1f77b4; fill-opacity: 0.75; stroke: #000000; stroke-width: 0.39592; stroke-linejoin: miter"/>
   </g>
   <g id="patch_9">
    <path d="M 94.972938 273.312 
L 98.93214 273.312 
L 98.93214 230.066286 
L 94.972938 230.066286 
z
" clip-path="url(#p295444a204)" style="fill: #1f77b4; fill-opacity: 0.75; stroke: #000000; stroke-width: 0.39592; stroke-linejoin: miter"/>
   </g>
   <g id="patch_10">
    <path d="M 98.93214 273.312 
L 102.891341 273.312 
L 102.891341 238.112 
L 98.93214 238.112 
z
" clip-path="url(#p295444a204)" style="fill: #1f77b4; fill-opacity: 0.75; stroke: #000000; stroke-width: 0.39592; stroke-linejoin: miter"/>
   </g>
   <g id="patch_11">
    <path d="M 102.891341 273.312 
L 106.850543 273.312 
L 106.850543 249.677714 
L 102.891341 249.677714 
z
" clip-path="url(#p295444a204)" style="fill: #1f77b4; fill-opacity: 0.75; stroke: #000000; stroke-width: 0.39592; stroke-linejoin: miter"/>
   </g>
   <g id="patch_12">
    <path d="M 106.850543 273.312 
L 110.809745 273.312 
L 110.809745 250.180571 
L 106.850543 250.180571 
z
" clip-path="url(#p295444a204)" style="fill: #1f77b4; fill-opacity: 0.75; stroke: #000000; stroke-width: 0.39592; stroke-linejoin: miter"/>
   </g>
   <g id="patch_13">
    <path d="M 110.809745 273.312 
L 114.768947 273.312 
L 114.768947 252.694857 
L 110.809745 252.694857 
z
" clip-path="url(#p295444a204)" style="fill: #1f77b4; fill-opacity: 0.75; stroke: #000000; stroke-width: 0.39592; stroke-linejoin: miter"/>
   </g>
   <g id="patch_14">
    <path d="M 114.768947 273.312 
L 118.728149 273.312 
L 118.728149 256.214857 
L 114.768947 256.214857 
z
" clip-path="url(#p295444a204)" style="fill: #1f77b4; fill-opacity: 0.75; stroke: #000000; stroke-width: 0.39592; stroke-linejoin: miter"/>
   </g>
   <g id="patch_15">
    <path d="M 118.728149 273.312 
L 122.68735 273.312 
L 122.68735 256.214857 
L 118.728149 256.214857 
z
" clip-path="url(#p295444a204)" style="fill: #1f77b4; fill-opacity: 0.75; stroke: #000000; stroke-width: 0.39592; stroke-linejoin: miter"/>
   </g>
   <g id="patch_16">
    <path d="M 122.68735 273.312 
L 126.646552 273.312 
L 126.646552 262.752 
L 122.68735 262.752 
z
" clip-path="url(#p295444a204)" style="fill: #1f77b4; fill-opacity: 0.75; stroke: #000000; stroke-width: 0.39592; stroke-linejoin: miter"/>
   </g>
   <g id="patch_17">
    <path d="M 126.646552 273.312 
L 130.605754 273.312 
L 130.605754 258.226286 
L 126.646552 258.226286 
z
" clip-path="url(#p295444a204)" style="fill: #1f77b4; fill-opacity: 0.75; stroke: #000000; stroke-width: 0.39592; stroke-linejoin: miter"/>
   </g>
   <g id="patch_18">
    <path d="M 130.605754 273.312 
L 134.564956 273.312 
L 134.564956 254.203429 
L 130.605754 254.203429 
z
" clip-path="url(#p295444a204)" style="fill: #1f77b4; fill-opacity: 0.75; stroke: #000000; stroke-width: 0.39592; stroke-linejoin: miter"/>
   </g>
   <g id="patch_19">
    <path d="M 134.564956 273.312 
L 138.524157 273.312 
L 138.524157 261.243429 
L 134.564956 261.243429 
z
" clip-path="url(#p295444a204)" style="fill: #1f77b4; fill-opacity: 0.75; stroke: #000000; stroke-width: 0.39592; stroke-linejoin: miter"/>
   </g>
   <g id="patch_20">
    <path d="M 138.524157 273.312 
L 142.483359 273.312 
L 142.483359 261.746286 
L 138.524157 261.746286 
z
" clip-path="url(#p295444a204)" style="fill: #1f77b4; fill-opacity: 0.75; stroke: #000000; stroke-width: 0.39592; stroke-linejoin: miter"/>
   </g>
   <g id="patch_21">
    <path d="M 142.483359 273.312 
L 146.442561 273.312 
L 146.442561 266.774857 
L 142.483359 266.774857 
z
" clip-path="url(#p295444a204)" style="fill: #1f77b4; fill-opacity: 0.75; stroke: #000000; stroke-width: 0.39592; stroke-linejoin: miter"/>
   </g>
   <g id="patch_22">
    <path d="M 146.442561 273.312 
L 150.401763 273.312 
L 150.401763 268.786286 
L 146.442561 268.786286 
z
" clip-path="url(#p295444a204)" style="fill: #1f77b4; fill-opacity: 0.75; stroke: #000000; stroke-width: 0.39592; stroke-linejoin: miter"/>
   </g>
   <g id="patch_23">
    <path d="M 150.401763 273.312 
L 154.360965 273.312 
L 154.360965 268.786286 
L 150.401763 268.786286 
z
" clip-path="url(#p295444a204)" style="fill: #1f77b4; fill-opacity: 0.75; stroke: #000000; stroke-width: 0.39592; stroke-linejoin: miter"/>
   </g>
   <g id="patch_24">
    <path d="M 154.360965 273.312 
L 158.320166 273.312 
L 158.320166 266.272 
L 154.360965 266.272 
z
" clip-path="url(#p295444a204)" style="fill: #1f77b4; fill-opacity: 0.75; stroke: #000000; stroke-width: 0.39592; stroke-linejoin: miter"/>
   </g>
   <g id="patch_25">
    <path d="M 158.320166 273.312 
L 162.279368 273.312 
L 162.279368 269.289143 
L 158.320166 269.289143 
z
" clip-path="url(#p295444a204)" style="fill: #1f77b4; fill-opacity: 0.75; stroke: #000000; stroke-width: 0.39592; stroke-linejoin: miter"/>
   </g>
   <g id="patch_26">
    <path d="M 162.279368 273.312 
L 166.23857 273.312 
L 166.23857 267.780571 
L 162.279368 267.780571 
z
" clip-path="url(#p295444a204)" style="fill: #1f77b4; fill-opacity: 0.75; stroke: #000000; stroke-width: 0.39592; stroke-linejoin: miter"/>
   </g>
   <g id="patch_27">
    <path d="M 166.23857 273.312 
L 170.197772 273.312 
L 170.197772 269.289143 
L 166.23857 269.289143 
z
" clip-path="url(#p295444a204)" style="fill: #1f77b4; fill-opacity: 0.75; stroke: #000000; stroke-width: 0.39592; stroke-linejoin: miter"/>
   </g>
   <g id="patch_28">
    <path d="M 170.197772 273.312 
L 174.156973 273.312 
L 174.156973 270.294857 
L 170.197772 270.294857 
z
" clip-path="url(#p295444a204)" style="fill: #1f77b4; fill-opacity: 0.75; stroke: #000000; stroke-width: 0.39592; stroke-linejoin: miter"/>
   </g>
   <g id="patch_29">
    <path d="M 174.156973 273.312 
L 178.116175 273.312 
L 178.116175 270.797714 
L 174.156973 270.797714 
z
" clip-path="url(#p295444a204)" style="fill: #1f77b4; fill-opacity: 0.75; stroke: #000000; stroke-width: 0.39592; stroke-linejoin: miter"/>
   </g>
   <g id="patch_30">
    <path d="M 178.116175 273.312 
L 182.075377 273.312 
L 182.075377 270.797714 
L 178.116175 270.797714 
z
" clip-path="url(#p295444a204)" style="fill: #1f77b4; fill-opacity: 0.75; stroke: #000000; stroke-width: 0.39592; stroke-linejoin: miter"/>
   </g>
   <g id="patch_31">
    <path d="M 182.075377 273.312 
L 186.034579 273.312 
L 186.034579 270.797714 
L 182.075377 270.797714 
z
" clip-path="url(#p295444a204)" style="fill: #1f77b4; fill-opacity: 0.75; stroke: #000000; stroke-width: 0.39592; stroke-linejoin: miter"/>
   </g>
   <g id="patch_32">
    <path d="M 186.034579 273.312 
L 189.99378 273.312 
L 189.99378 271.803429 
L 186.034579 271.803429 
z
" clip-path="url(#p295444a204)" style="fill: #1f77b4; fill-opacity: 0.75; stroke: #000000; stroke-width: 0.39592; stroke-linejoin: miter"/>
   </g>
   <g id="patch_33">
    <path d="M 189.99378 273.312 
L 193.952982 273.312 
L 193.952982 270.797714 
L 189.99378 270.797714 
z
" clip-path="url(#p295444a204)" style="fill: #1f77b4; fill-opacity: 0.75; stroke: #000000; stroke-width: 0.39592; stroke-linejoin: miter"/>
   </g>
   <g id="patch_34">
    <path d="M 193.952982 273.312 
L 197.912184 273.312 
L 197.912184 272.809143 
L 193.952982 272.809143 
z
" clip-path="url(#p295444a204)" style="fill: #1f77b4; fill-opacity: 0.75; stroke: #000000; stroke-width: 0.39592; stroke-linejoin: miter"/>
   </g>
   <g id="patch_35">
    <path d="M 197.912184 273.312 
L 201.871386 273.312 
L 201.871386 272.306286 
L 197.912184 272.306286 
z
" clip-path="url(#p295444a204)" style="fill: #1f77b4; fill-opacity: 0.75; stroke: #000000; stroke-width: 0.39592; stroke-linejoin: miter"/>
   </g>
   <g id="patch_36">
    <path d="M 201.871386 273.312 
L 205.830588 273.312 
L 205.830588 271.300571 
L 201.871386 271.300571 
z
" clip-path="url(#p295444a204)" style="fill: #1f77b4; fill-opacity: 0.75; stroke: #000000; stroke-width: 0.39592; stroke-linejoin: miter"/>
   </g>
   <g id="patch_37">
    <path d="M 205.830588 273.312 
L 209.789789 273.312 
L 209.789789 273.312 
L 205.830588 273.312 
z
" clip-path="url(#p295444a204)" style="fill: #1f77b4; fill-opacity: 0.75; stroke: #000000; stroke-width: 0.39592; stroke-linejoin: miter"/>
   </g>
   <g id="patch_38">
    <path d="M 209.789789 273.312 
L 213.748991 273.312 
L 213.748991 271.803429 
L 209.789789 271.803429 
z
" clip-path="url(#p295444a204)" style="fill: #1f77b4; fill-opacity: 0.75; stroke: #000000; stroke-width: 0.39592; stroke-linejoin: miter"/>
   </g>
   <g id="patch_39">
    <path d="M 213.748991 273.312 
L 217.708193 273.312 
L 217.708193 273.312 
L 213.748991 273.312 
z
" clip-path="url(#p295444a204)" style="fill: #1f77b4; fill-opacity: 0.75; stroke: #000000; stroke-width: 0.39592; stroke-linejoin: miter"/>
   </g>
   <g id="patch_40">
    <path d="M 217.708193 273.312 
L 221.667395 273.312 
L 221.667395 272.809143 
L 217.708193 272.809143 
z
" clip-path="url(#p295444a204)" style="fill: #1f77b4; fill-opacity: 0.75; stroke: #000000; stroke-width: 0.39592; stroke-linejoin: miter"/>
   </g>
   <g id="patch_41">
    <path d="M 221.667395 273.312 
L 225.626596 273.312 
L 225.626596 272.809143 
L 221.667395 272.809143 
z
" clip-path="url(#p295444a204)" style="fill: #1f77b4; fill-opacity: 0.75; stroke: #000000; stroke-width: 0.39592; stroke-linejoin: miter"/>
   </g>
   <g id="patch_42">
    <path d="M 225.626596 273.312 
L 229.585798 273.312 
L 229.585798 272.306286 
L 225.626596 272.306286 
z
" clip-path="url(#p295444a204)" style="fill: #1f77b4; fill-opacity: 0.75; stroke: #000000; stroke-width: 0.39592; stroke-linejoin: miter"/>
   </g>
   <g id="patch_43">
    <path d="M 229.585798 273.312 
L 233.545 273.312 
L 233.545 273.312 
L 229.585798 273.312 
z
" clip-path="url(#p295444a204)" style="fill: #1f77b4; fill-opacity: 0.75; stroke: #000000; stroke-width: 0.39592; stroke-linejoin: miter"/>
   </g>
   <g id="patch_44">
    <path d="M 233.545 273.312 
L 237.504202 273.312 
L 237.504202 272.809143 
L 233.545 272.809143 
z
" clip-path="url(#p295444a204)" style="fill: #1f77b4; fill-opacity: 0.75; stroke: #000000; stroke-width: 0.39592; stroke-linejoin: miter"/>
   </g>
   <g id="patch_45">
    <path d="M 237.504202 273.312 
L 241.463404 273.312 
L 241.463404 273.312 
L 237.504202 273.312 
z
" clip-path="url(#p295444a204)" style="fill: #1f77b4; fill-opacity: 0.75; stroke: #000000; stroke-width: 0.39592; stroke-linejoin: miter"/>
   </g>
   <g id="patch_46">
    <path d="M 241.463404 273.312 
L 245.422605 273.312 
L 245.422605 273.312 
L 241.463404 273.312 
z
" clip-path="url(#p295444a204)" style="fill: #1f77b4; fill-opacity: 0.75; stroke: #000000; stroke-width: 0.39592; stroke-linejoin: miter"/>
   </g>
   <g id="patch_47">
    <path d="M 245.422605 273.312 
L 249.381807 273.312 
L 249.381807 273.312 
L 245.422605 273.312 
z
" clip-path="url(#p295444a204)" style="fill: #1f77b4; fill-opacity: 0.75; stroke: #000000; stroke-width: 0.39592; stroke-linejoin: miter"/>
   </g>
   <g id="patch_48">
    <path d="M 249.381807 273.312 
L 253.341009 273.312 
L 253.341009 272.809143 
L 249.381807 272.809143 
z
" clip-path="url(#p295444a204)" style="fill: #1f77b4; fill-opacity: 0.75; stroke: #000000; stroke-width: 0.39592; stroke-linejoin: miter"/>
   </g>
   <g id="patch_49">
    <path d="M 253.341009 273.312 
L 257.300211 273.312 
L 257.300211 273.312 
L 253.341009 273.312 
z
" clip-path="url(#p295444a204)" style="fill: #1f77b4; fill-opacity: 0.75; stroke: #000000; stroke-width: 0.39592; stroke-linejoin: miter"/>
   </g>
   <g id="patch_50">
    <path d="M 257.300211 273.312 
L 261.259412 273.312 
L 261.259412 273.312 
L 257.300211 273.312 
z
" clip-path="url(#p295444a204)" style="fill: #1f77b4; fill-opacity: 0.75; stroke: #000000; stroke-width: 0.39592; stroke-linejoin: miter"/>
   </g>
   <g id="patch_51">
    <path d="M 261.259412 273.312 
L 265.218614 273.312 
L 265.218614 273.312 
L 261.259412 273.312 
z
" clip-path="url(#p295444a204)" style="fill: #1f77b4; fill-opacity: 0.75; stroke: #000000; stroke-width: 0.39592; stroke-linejoin: miter"/>
   </g>
   <g id="patch_52">
    <path d="M 265.218614 273.312 
L 269.177816 273.312 
L 269.177816 273.312 
L 265.218614 273.312 
z
" clip-path="url(#p295444a204)" style="fill: #1f77b4; fill-opacity: 0.75; stroke: #000000; stroke-width: 0.39592; stroke-linejoin: miter"/>
   </g>
   <g id="patch_53">
    <path d="M 269.177816 273.312 
L 273.137018 273.312 
L 273.137018 273.312 
L 269.177816 273.312 
z
" clip-path="url(#p295444a204)" style="fill: #1f77b4; fill-opacity: 0.75; stroke: #000000; stroke-width: 0.39592; stroke-linejoin: miter"/>
   </g>
   <g id="patch_54">
    <path d="M 273.137018 273.312 
L 277.09622 273.312 
L 277.09622 273.312 
L 273.137018 273.312 
z
" clip-path="url(#p295444a204)" style="fill: #1f77b4; fill-opacity: 0.75; stroke: #000000; stroke-width: 0.39592; stroke-linejoin: miter"/>
   </g>
   <g id="patch_55">
    <path d="M 277.09622 273.312 
L 281.055421 273.312 
L 281.055421 273.312 
L 277.09622 273.312 
z
" clip-path="url(#p295444a204)" style="fill: #1f77b4; fill-opacity: 0.75; stroke: #000000; stroke-width: 0.39592; stroke-linejoin: miter"/>
   </g>
   <g id="patch_56">
    <path d="M 281.055421 273.312 
L 285.014623 273.312 
L 285.014623 273.312 
L 281.055421 273.312 
z
" clip-path="url(#p295444a204)" style="fill: #1f77b4; fill-opacity: 0.75; stroke: #000000; stroke-width: 0.39592; stroke-linejoin: miter"/>
   </g>
   <g id="patch_57">
    <path d="M 285.014623 273.312 
L 288.973825 273.312 
L 288.973825 273.312 
L 285.014623 273.312 
z
" clip-path="url(#p295444a204)" style="fill: #1f77b4; fill-opacity: 0.75; stroke: #000000; stroke-width: 0.39592; stroke-linejoin: miter"/>
   </g>
   <g id="patch_58">
    <path d="M 288.973825 273.312 
L 292.933027 273.312 
L 292.933027 273.312 
L 288.973825 273.312 
z
" clip-path="url(#p295444a204)" style="fill: #1f77b4; fill-opacity: 0.75; stroke: #000000; stroke-width: 0.39592; stroke-linejoin: miter"/>
   </g>
   <g id="patch_59">
    <path d="M 292.933027 273.312 
L 296.892228 273.312 
L 296.892228 273.312 
L 292.933027 273.312 
z
" clip-path="url(#p295444a204)" style="fill: #1f77b4; fill-opacity: 0.75; stroke: #000000; stroke-width: 0.39592; stroke-linejoin: miter"/>
   </g>
   <g id="patch_60">
    <path d="M 296.892228 273.312 
L 300.85143 273.312 
L 300.85143 273.312 
L 296.892228 273.312 
z
" clip-path="url(#p295444a204)" style="fill: #1f77b4; fill-opacity: 0.75; stroke: #000000; stroke-width: 0.39592; stroke-linejoin: miter"/>
   </g>
   <g id="patch_61">
    <path d="M 300.85143 273.312 
L 304.810632 273.312 
L 304.810632 273.312 
L 300.85143 273.312 
z
" clip-path="url(#p295444a204)" style="fill: #1f77b4; fill-opacity: 0.75; stroke: #000000; stroke-width: 0.39592; stroke-linejoin: miter"/>
   </g>
   <g id="patch_62">
    <path d="M 304.810632 273.312 
L 308.769834 273.312 
L 308.769834 273.312 
L 304.810632 273.312 
z
" clip-path="url(#p295444a204)" style="fill: #1f77b4; fill-opacity: 0.75; stroke: #000000; stroke-width: 0.39592; stroke-linejoin: miter"/>
   </g>
   <g id="patch_63">
    <path d="M 308.769834 273.312 
L 312.729035 273.312 
L 312.729035 273.312 
L 308.769834 273.312 
z
" clip-path="url(#p295444a204)" style="fill: #1f77b4; fill-opacity: 0.75; stroke: #000000; stroke-width: 0.39592; stroke-linejoin: miter"/>
   </g>
   <g id="patch_64">
    <path d="M 312.729035 273.312 
L 316.688237 273.312 
L 316.688237 273.312 
L 312.729035 273.312 
z
" clip-path="url(#p295444a204)" style="fill: #1f77b4; fill-opacity: 0.75; stroke: #000000; stroke-width: 0.39592; stroke-linejoin: miter"/>
   </g>
   <g id="patch_65">
    <path d="M 316.688237 273.312 
L 320.647439 273.312 
L 320.647439 273.312 
L 316.688237 273.312 
z
" clip-path="url(#p295444a204)" style="fill: #1f77b4; fill-opacity: 0.75; stroke: #000000; stroke-width: 0.39592; stroke-linejoin: miter"/>
   </g>
   <g id="patch_66">
    <path d="M 320.647439 273.312 
L 324.606641 273.312 
L 324.606641 273.312 
L 320.647439 273.312 
z
" clip-path="url(#p295444a204)" style="fill: #1f77b4; fill-opacity: 0.75; stroke: #000000; stroke-width: 0.39592; stroke-linejoin: miter"/>
   </g>
   <g id="patch_67">
    <path d="M 324.606641 273.312 
L 328.565843 273.312 
L 328.565843 273.312 
L 324.606641 273.312 
z
" clip-path="url(#p295444a204)" style="fill: #1f77b4; fill-opacity: 0.75; stroke: #000000; stroke-width: 0.39592; stroke-linejoin: miter"/>
   </g>
   <g id="patch_68">
    <path d="M 328.565843 273.312 
L 332.525044 273.312 
L 332.525044 273.312 
L 328.565843 273.312 
z
" clip-path="url(#p295444a204)" style="fill: #1f77b4; fill-opacity: 0.75; stroke: #000000; stroke-width: 0.39592; stroke-linejoin: miter"/>
   </g>
   <g id="patch_69">
    <path d="M 332.525044 273.312 
L 336.484246 273.312 
L 336.484246 273.312 
L 332.525044 273.312 
z
" clip-path="url(#p295444a204)" style="fill: #1f77b4; fill-opacity: 0.75; stroke: #000000; stroke-width: 0.39592; stroke-linejoin: miter"/>
   </g>
   <g id="patch_70">
    <path d="M 336.484246 273.312 
L 340.443448 273.312 
L 340.443448 273.312 
L 336.484246 273.312 
z
" clip-path="url(#p295444a204)" style="fill: #1f77b4; fill-opacity: 0.75; stroke: #000000; stroke-width: 0.39592; stroke-linejoin: miter"/>
   </g>
   <g id="patch_71">
    <path d="M 340.443448 273.312 
L 344.40265 273.312 
L 344.40265 273.312 
L 340.443448 273.312 
z
" clip-path="url(#p295444a204)" style="fill: #1f77b4; fill-opacity: 0.75; stroke: #000000; stroke-width: 0.39592; stroke-linejoin: miter"/>
   </g>
   <g id="patch_72">
    <path d="M 344.40265 273.312 
L 348.361851 273.312 
L 348.361851 273.312 
L 344.40265 273.312 
z
" clip-path="url(#p295444a204)" style="fill: #1f77b4; fill-opacity: 0.75; stroke: #000000; stroke-width: 0.39592; stroke-linejoin: miter"/>
   </g>
   <g id="patch_73">
    <path d="M 348.361851 273.312 
L 352.321053 273.312 
L 352.321053 273.312 
L 348.361851 273.312 
z
" clip-path="url(#p295444a204)" style="fill: #1f77b4; fill-opacity: 0.75; stroke: #000000; stroke-width: 0.39592; stroke-linejoin: miter"/>
   </g>
   <g id="patch_74">
    <path d="M 352.321053 273.312 
L 356.280255 273.312 
L 356.280255 273.312 
L 352.321053 273.312 
z
" clip-path="url(#p295444a204)" style="fill: #1f77b4; fill-opacity: 0.75; stroke: #000000; stroke-width: 0.39592; stroke-linejoin: miter"/>
   </g>
   <g id="patch_75">
    <path d="M 356.280255 273.312 
L 360.239457 273.312 
L 360.239457 273.312 
L 356.280255 273.312 
z
" clip-path="url(#p295444a204)" style="fill: #1f77b4; fill-opacity: 0.75; stroke: #000000; stroke-width: 0.39592; stroke-linejoin: miter"/>
   </g>
   <g id="patch_76">
    <path d="M 360.239457 273.312 
L 364.198659 273.312 
L 364.198659 273.312 
L 360.239457 273.312 
z
" clip-path="url(#p295444a204)" style="fill: #1f77b4; fill-opacity: 0.75; stroke: #000000; stroke-width: 0.39592; stroke-linejoin: miter"/>
   </g>
   <g id="patch_77">
    <path d="M 364.198659 273.312 
L 368.15786 273.312 
L 368.15786 273.312 
L 364.198659 273.312 
z
" clip-path="url(#p295444a204)" style="fill: #1f77b4; fill-opacity: 0.75; stroke: #000000; stroke-width: 0.39592; stroke-linejoin: miter"/>
   </g>
   <g id="patch_78">
    <path d="M 368.15786 273.312 
L 372.117062 273.312 
L 372.117062 273.312 
L 368.15786 273.312 
z
" clip-path="url(#p295444a204)" style="fill: #1f77b4; fill-opacity: 0.75; stroke: #000000; stroke-width: 0.39592; stroke-linejoin: miter"/>
   </g>
   <g id="patch_79">
    <path d="M 372.117062 273.312 
L 376.076264 273.312 
L 376.076264 273.312 
L 372.117062 273.312 
z
" clip-path="url(#p295444a204)" style="fill: #1f77b4; fill-opacity: 0.75; stroke: #000000; stroke-width: 0.39592; stroke-linejoin: miter"/>
   </g>
   <g id="patch_80">
    <path d="M 376.076264 273.312 
L 380.035466 273.312 
L 380.035466 273.312 
L 376.076264 273.312 
z
" clip-path="url(#p295444a204)" style="fill: #1f77b4; fill-opacity: 0.75; stroke: #000000; stroke-width: 0.39592; stroke-linejoin: miter"/>
   </g>
   <g id="patch_81">
    <path d="M 380.035466 273.312 
L 383.994667 273.312 
L 383.994667 273.312 
L 380.035466 273.312 
z
" clip-path="url(#p295444a204)" style="fill: #1f77b4; fill-opacity: 0.75; stroke: #000000; stroke-width: 0.39592; stroke-linejoin: miter"/>
   </g>
   <g id="patch_82">
    <path d="M 383.994667 273.312 
L 387.953869 273.312 
L 387.953869 273.312 
L 383.994667 273.312 
z
" clip-path="url(#p295444a204)" style="fill: #1f77b4; fill-opacity: 0.75; stroke: #000000; stroke-width: 0.39592; stroke-linejoin: miter"/>
   </g>
   <g id="patch_83">
    <path d="M 387.953869 273.312 
L 391.913071 273.312 
L 391.913071 273.312 
L 387.953869 273.312 
z
" clip-path="url(#p295444a204)" style="fill: #1f77b4; fill-opacity: 0.75; stroke: #000000; stroke-width: 0.39592; stroke-linejoin: miter"/>
   </g>
   <g id="patch_84">
    <path d="M 391.913071 273.312 
L 395.872273 273.312 
L 395.872273 272.809143 
L 391.913071 272.809143 
z
" clip-path="url(#p295444a204)" style="fill: #1f77b4; fill-opacity: 0.75; stroke: #000000; stroke-width: 0.39592; stroke-linejoin: miter"/>
   </g>
   <g id="matplotlib.axis_1">
    <g id="xtick_1">
     <g id="line2d_1">
      <defs>
       <path id="m1a318aabd5" d="M 0 0 
L 0 3.5 
" style="stroke: #000000; stroke-width: 0.8"/>
      </defs>
      <g>
       <use xlink:href="#m1a318aabd5" x="70.501999" y="273.312" style="stroke: #000000; stroke-width: 0.8"/>
      </g>
     </g>
     <g id="text_1">
      <!-- 0 -->
      <g transform="translate(66.741999 291.417)scale(0.16 -0.16)">
       <defs>
        <path id="LMSans17-Regular-30" d="M 2758 2093 
C 2758 2458 2752 3136 2490 3661 
C 2227 4166 1805 4301 1504 4301 
C 1069 4301 698 4045 506 3635 
C 301 3206 243 2765 243 2093 
C 243 1632 262 1069 493 576 
C 755 32 1197 -102 1498 -102 
C 1894 -102 2278 109 2496 550 
C 2720 1011 2758 1517 2758 2093 
z
M 2272 2163 
C 2272 1568 2272 288 1498 288 
C 1011 288 864 845 819 1030 
C 742 1350 730 1658 730 2163 
C 730 2560 730 3008 851 3360 
C 998 3770 1254 3910 1498 3910 
C 1971 3910 2125 3437 2176 3270 
C 2272 2931 2272 2534 2272 2163 
z
" transform="scale(0.015625)"/>
       </defs>
       <use xlink:href="#LMSans17-Regular-30"/>
      </g>
     </g>
    </g>
    <g id="xtick_2">
     <g id="line2d_2">
      <g>
       <use xlink:href="#m1a318aabd5" x="142.07487" y="273.312" style="stroke: #000000; stroke-width: 0.8"/>
      </g>
     </g>
     <g id="text_2">
      <!-- 1000 -->
      <g transform="translate(127.03487 291.417)scale(0.16 -0.16)">
       <defs>
        <path id="LMSans17-Regular-31" d="M 2573 0 
L 2573 371 
L 1818 371 
L 1818 4301 
L 1696 4301 
C 1350 3942 947 3891 538 3878 
L 538 3507 
C 723 3514 1024 3526 1325 3661 
L 1325 371 
L 570 371 
L 570 0 
L 2573 0 
z
" transform="scale(0.015625)"/>
       </defs>
       <use xlink:href="#LMSans17-Regular-31"/>
       <use xlink:href="#LMSans17-Regular-30" x="46.999985"/>
       <use xlink:href="#LMSans17-Regular-30" x="93.999969"/>
       <use xlink:href="#LMSans17-Regular-30" x="140.999954"/>
      </g>
     </g>
    </g>
    <g id="xtick_3">
     <g id="line2d_3">
      <g>
       <use xlink:href="#m1a318aabd5" x="213.647742" y="273.312" style="stroke: #000000; stroke-width: 0.8"/>
      </g>
     </g>
     <g id="text_3">
      <!-- 2000 -->
      <g transform="translate(198.607742 291.417)scale(0.16 -0.16)">
       <defs>
        <path id="LMSans17-Regular-32" d="M 2701 0 
L 2701 435 
L 1613 435 
C 1536 435 1459 429 1382 429 
L 742 429 
L 742 435 
L 1651 1357 
C 1830 1542 2099 1766 2285 1990 
C 2464 2208 2701 2515 2701 2963 
C 2701 3667 2227 4301 1421 4301 
C 787 4301 422 3904 250 3283 
L 499 2938 
C 640 3520 838 3891 1338 3891 
C 1888 3891 2195 3443 2195 2950 
C 2195 2362 1747 1907 1408 1568 
L 301 410 
L 301 0 
L 2701 0 
z
" transform="scale(0.015625)"/>
       </defs>
       <use xlink:href="#LMSans17-Regular-32"/>
       <use xlink:href="#LMSans17-Regular-30" x="46.999985"/>
       <use xlink:href="#LMSans17-Regular-30" x="93.999969"/>
       <use xlink:href="#LMSans17-Regular-30" x="140.999954"/>
      </g>
     </g>
    </g>
    <g id="xtick_4">
     <g id="line2d_4">
      <g>
       <use xlink:href="#m1a318aabd5" x="285.220613" y="273.312" style="stroke: #000000; stroke-width: 0.8"/>
      </g>
     </g>
     <g id="text_4">
      <!-- 3000 -->
      <g transform="translate(270.180613 291.417)scale(0.16 -0.16)">
       <defs>
        <path id="LMSans17-Regular-33" d="M 2752 1178 
C 2752 1683 2400 2106 1920 2266 
C 2304 2477 2586 2874 2586 3334 
C 2586 3872 2093 4301 1491 4301 
C 941 4301 512 3962 333 3597 
C 378 3533 493 3347 550 3251 
C 691 3629 1056 3910 1485 3910 
C 1843 3910 2080 3674 2080 3334 
C 2080 2982 1856 2598 1478 2509 
C 1453 2509 1056 2470 1005 2464 
L 1005 2074 
L 1440 2074 
C 2042 2074 2214 1549 2214 1184 
C 2214 685 1933 294 1472 294 
C 1114 294 608 474 320 947 
C 275 723 275 710 250 557 
C 550 115 1037 -102 1485 -102 
C 2214 -102 2752 506 2752 1178 
z
" transform="scale(0.015625)"/>
       </defs>
       <use xlink:href="#LMSans17-Regular-33"/>
       <use xlink:href="#LMSans17-Regular-30" x="46.999985"/>
       <use xlink:href="#LMSans17-Regular-30" x="93.999969"/>
       <use xlink:href="#LMSans17-Regular-30" x="140.999954"/>
      </g>
     </g>
    </g>
    <g id="xtick_5">
     <g id="line2d_5">
      <g>
       <use xlink:href="#m1a318aabd5" x="356.793485" y="273.312" style="stroke: #000000; stroke-width: 0.8"/>
      </g>
     </g>
     <g id="text_5">
      <!-- 4000 -->
      <g transform="translate(341.753485 291.417)scale(0.16 -0.16)">
       <defs>
        <path id="LMSans17-Regular-34" d="M 2835 1094 
L 2835 1485 
L 2253 1485 
L 2253 4198 
L 1690 4198 
L 166 1485 
L 166 1094 
L 1747 1094 
L 1747 0 
L 2253 0 
L 2253 1094 
L 2835 1094 
z
M 1766 1485 
L 659 1485 
C 1030 2138 1760 3456 1766 3904 
L 1766 1485 
z
" transform="scale(0.015625)"/>
       </defs>
       <use xlink:href="#LMSans17-Regular-34"/>
       <use xlink:href="#LMSans17-Regular-30" x="46.999985"/>
       <use xlink:href="#LMSans17-Regular-30" x="93.999969"/>
       <use xlink:href="#LMSans17-Regular-30" x="140.999954"/>
      </g>
     </g>
    </g>
    <g id="text_6">
     <!-- n_cells -->
     <g transform="translate(211.5375 309.642)scale(0.16 -0.16)">
      <defs>
       <path id="LMSans17-Regular-6e" d="M 2618 0 
L 2618 1869 
C 2618 2272 2522 2803 1798 2803 
C 1389 2803 1120 2592 941 2374 
L 941 2771 
L 474 2771 
L 474 0 
L 960 0 
L 960 1549 
C 960 1952 1114 2413 1549 2413 
C 2112 2413 2131 2035 2131 1818 
L 2131 0 
L 2618 0 
z
" transform="scale(0.015625)"/>
       <path id="LMSans17-Regular-5f" d="M 4000 -1043 
L 4000 -557 
L 0 -557 
L 0 -1043 
L 4000 -1043 
z
" transform="scale(0.015625)"/>
       <path id="LMSans17-Regular-63" d="M 2502 256 
L 2464 678 
C 2189 467 1869 352 1523 352 
C 1024 352 698 787 698 1382 
C 698 1843 909 2426 1549 2426 
C 1901 2426 2099 2355 2394 2157 
L 2464 2554 
C 2464 2598 2170 2726 2093 2752 
C 1882 2829 1613 2829 1542 2829 
C 710 2829 211 2106 211 1376 
C 211 608 768 -51 1517 -51 
C 1946 -51 2253 90 2502 256 
z
" transform="scale(0.015625)"/>
       <path id="LMSans17-Regular-65" d="M 2502 1402 
C 2502 1613 2490 2022 2285 2362 
C 2061 2726 1696 2829 1421 2829 
C 755 2829 192 2202 192 1389 
C 192 595 774 -51 1510 -51 
C 1798 -51 2150 32 2470 262 
C 2470 288 2451 435 2451 435 
C 2451 435 2432 646 2432 672 
C 2125 422 1773 339 1517 339 
C 1107 339 666 685 646 1402 
L 2502 1402 
z
M 2080 1754 
L 698 1754 
C 781 2106 1062 2438 1421 2438 
C 1517 2438 1965 2426 2080 1754 
z
" transform="scale(0.015625)"/>
       <path id="LMSans17-Regular-6c" d="M 947 0 
L 947 4442 
L 474 4442 
L 474 0 
L 947 0 
z
" transform="scale(0.015625)"/>
       <path id="LMSans17-Regular-73" d="M 2163 794 
C 2163 1107 1984 1318 1862 1414 
C 1651 1581 1574 1600 1050 1709 
C 960 1722 646 1792 646 2080 
C 646 2445 1050 2445 1139 2445 
C 1555 2445 1811 2317 1984 2221 
L 2061 2637 
C 1683 2816 1389 2829 1197 2829 
C 742 2829 198 2669 198 2022 
C 198 1376 902 1235 1094 1197 
C 1389 1139 1715 1075 1715 755 
C 1715 352 1254 352 1171 352 
C 915 352 563 422 243 653 
L 166 224 
C 531 13 883 -51 1178 -51 
C 1965 -51 2163 429 2163 794 
z
" transform="scale(0.015625)"/>
      </defs>
      <use xlink:href="#LMSans17-Regular-6e"/>
      <use xlink:href="#LMSans17-Regular-5f" x="48.399994"/>
      <use xlink:href="#LMSans17-Regular-63" x="110.899979"/>
      <use xlink:href="#LMSans17-Regular-65" x="152.699966"/>
      <use xlink:href="#LMSans17-Regular-6c" x="194.499954"/>
      <use xlink:href="#LMSans17-Regular-6c" x="216.799942"/>
      <use xlink:href="#LMSans17-Regular-73" x="239.09993"/>
     </g>
    </g>
   </g>
   <g id="matplotlib.axis_2">
    <g id="ytick_1">
     <g id="line2d_6">
      <defs>
       <path id="md2ce867aff" d="M 0 0 
L -3.5 0 
" style="stroke: #000000; stroke-width: 0.8"/>
      </defs>
      <g>
       <use xlink:href="#md2ce867aff" x="54.985" y="273.312" style="stroke: #000000; stroke-width: 0.8"/>
      </g>
     </g>
     <g id="text_7">
      <!-- 0 -->
      <g transform="translate(40.465 278.8645)scale(0.16 -0.16)">
       <use xlink:href="#LMSans17-Regular-30"/>
      </g>
     </g>
    </g>
    <g id="ytick_2">
     <g id="line2d_7">
      <g>
       <use xlink:href="#md2ce867aff" x="54.985" y="223.026286" style="stroke: #000000; stroke-width: 0.8"/>
      </g>
     </g>
     <g id="text_8">
      <!-- 100 -->
      <g transform="translate(25.425 228.578786)scale(0.16 -0.16)">
       <use xlink:href="#LMSans17-Regular-31"/>
       <use xlink:href="#LMSans17-Regular-30" x="46.999985"/>
       <use xlink:href="#LMSans17-Regular-30" x="93.999969"/>
      </g>
     </g>
    </g>
    <g id="ytick_3">
     <g id="line2d_8">
      <g>
       <use xlink:href="#md2ce867aff" x="54.985" y="172.740571" style="stroke: #000000; stroke-width: 0.8"/>
      </g>
     </g>
     <g id="text_9">
      <!-- 200 -->
      <g transform="translate(25.425 178.293071)scale(0.16 -0.16)">
       <use xlink:href="#LMSans17-Regular-32"/>
       <use xlink:href="#LMSans17-Regular-30" x="46.999985"/>
       <use xlink:href="#LMSans17-Regular-30" x="93.999969"/>
      </g>
     </g>
    </g>
    <g id="ytick_4">
     <g id="line2d_9">
      <g>
       <use xlink:href="#md2ce867aff" x="54.985" y="122.454857" style="stroke: #000000; stroke-width: 0.8"/>
      </g>
     </g>
     <g id="text_10">
      <!-- 300 -->
      <g transform="translate(25.425 128.007357)scale(0.16 -0.16)">
       <use xlink:href="#LMSans17-Regular-33"/>
       <use xlink:href="#LMSans17-Regular-30" x="46.999985"/>
       <use xlink:href="#LMSans17-Regular-30" x="93.999969"/>
      </g>
     </g>
    </g>
    <g id="ytick_5">
     <g id="line2d_10">
      <g>
       <use xlink:href="#md2ce867aff" x="54.985" y="72.169143" style="stroke: #000000; stroke-width: 0.8"/>
      </g>
     </g>
     <g id="text_11">
      <!-- 400 -->
      <g transform="translate(25.425 77.721643)scale(0.16 -0.16)">
       <use xlink:href="#LMSans17-Regular-34"/>
       <use xlink:href="#LMSans17-Regular-30" x="46.999985"/>
       <use xlink:href="#LMSans17-Regular-30" x="93.999969"/>
      </g>
     </g>
    </g>
    <g id="ytick_6">
     <g id="line2d_11">
      <g>
       <use xlink:href="#md2ce867aff" x="54.985" y="21.883429" style="stroke: #000000; stroke-width: 0.8"/>
      </g>
     </g>
     <g id="text_12">
      <!-- 500 -->
      <g transform="translate(25.425 27.435929)scale(0.16 -0.16)">
       <defs>
        <path id="LMSans17-Regular-35" d="M 2701 1299 
C 2701 2086 2182 2694 1562 2694 
C 1338 2694 1120 2618 934 2464 
L 934 3789 
L 2502 3789 
L 2502 4198 
L 467 4198 
L 467 1837 
L 896 1837 
C 1011 2106 1248 2304 1555 2304 
C 1843 2304 2163 2048 2163 1312 
C 2163 525 1709 294 1376 294 
C 966 294 589 544 422 890 
L 218 531 
C 512 77 992 -102 1376 -102 
C 2118 -102 2701 531 2701 1299 
z
" transform="scale(0.015625)"/>
       </defs>
       <use xlink:href="#LMSans17-Regular-35"/>
       <use xlink:href="#LMSans17-Regular-30" x="46.999985"/>
       <use xlink:href="#LMSans17-Regular-30" x="93.999969"/>
      </g>
     </g>
    </g>
    <g id="text_13">
     <!-- Count -->
     <g transform="translate(18.305 159.2885)rotate(-90)scale(0.16 -0.16)">
      <defs>
       <path id="LMSans17-Regular-43" d="M 3501 301 
L 3462 736 
C 3290 614 3123 493 2918 429 
C 2720 365 2515 358 2310 358 
C 1920 358 1568 582 1338 896 
C 1050 1274 922 1734 922 2195 
C 922 2662 1050 3130 1338 3501 
C 1568 3808 1920 4038 2310 4038 
C 2496 4038 2675 4019 2848 3962 
C 3027 3910 3187 3814 3347 3718 
L 3437 4230 
C 3258 4301 3072 4358 2880 4397 
C 2694 4435 2502 4448 2310 4448 
C 1786 4448 1299 4192 954 3789 
C 576 3347 390 2778 390 2195 
C 390 1619 576 1050 954 608 
C 1299 205 1786 -51 2310 -51 
C 2522 -51 2733 -45 2938 13 
C 3142 77 3322 186 3501 301 
z
" transform="scale(0.015625)"/>
       <path id="LMSans17-Regular-6f" d="M 2829 1370 
C 2829 2189 2221 2829 1504 2829 
C 768 2829 173 2170 173 1370 
C 173 557 787 -51 1498 -51 
C 2227 -51 2829 576 2829 1370 
z
M 2342 1421 
C 2342 698 1926 346 1498 346 
C 1050 346 659 723 659 1421 
C 659 2163 1114 2432 1498 2432 
C 1914 2432 2342 2138 2342 1421 
z
" transform="scale(0.015625)"/>
       <path id="LMSans17-Regular-75" d="M 2618 0 
L 2618 2752 
L 2131 2752 
L 2131 986 
C 2131 512 1786 320 1421 320 
C 998 320 960 461 960 723 
L 960 2752 
L 474 2752 
L 474 691 
C 474 192 646 -51 1088 -51 
C 1306 -51 1798 0 2144 320 
L 2144 0 
L 2618 0 
z
" transform="scale(0.015625)"/>
       <path id="LMSans17-Regular-74" d="M 2003 186 
L 1901 563 
C 1747 429 1562 352 1363 352 
C 1082 352 1069 710 1069 870 
L 1069 2381 
L 1901 2381 
L 1901 2752 
L 1069 2752 
L 1069 3539 
L 614 3539 
L 614 2752 
L 109 2752 
L 109 2381 
L 602 2381 
L 602 762 
C 602 397 685 -51 1107 -51 
C 1427 -51 1722 38 2003 186 
z
" transform="scale(0.015625)"/>
      </defs>
      <use xlink:href="#LMSans17-Regular-43"/>
      <use xlink:href="#LMSans17-Regular-6f" x="60.099991"/>
      <use xlink:href="#LMSans17-Regular-75" x="107.099976"/>
      <use xlink:href="#LMSans17-Regular-6e" x="155.499969"/>
      <use xlink:href="#LMSans17-Regular-74" x="203.899963"/>
     </g>
    </g>
   </g>
   <g id="patch_85">
    <path d="M 54.985 273.312 
L 54.985 7.2 
" style="fill: none; stroke: #000000; stroke-width: 0.8; stroke-linejoin: miter; stroke-linecap: square"/>
   </g>
   <g id="patch_86">
    <path d="M 412.105 273.312 
L 412.105 7.2 
" style="fill: none; stroke: #000000; stroke-width: 0.8; stroke-linejoin: miter; stroke-linecap: square"/>
   </g>
   <g id="patch_87">
    <path d="M 54.985 273.312 
L 412.105 273.312 
" style="fill: none; stroke: #000000; stroke-width: 0.8; stroke-linejoin: miter; stroke-linecap: square"/>
   </g>
   <g id="patch_88">
    <path d="M 54.985 7.2 
L 412.105 7.2 
" style="fill: none; stroke: #000000; stroke-width: 0.8; stroke-linejoin: miter; stroke-linecap: square"/>
   </g>
  </g>
 </g>
 <defs>
  <clipPath id="p295444a204">
   <rect x="54.985" y="7.2" width="357.12" height="266.112"/>
  </clipPath>
 </defs>
</svg>
