<?xml version="1.0" encoding="utf-8" standalone="no"?>
<!DOCTYPE svg PUBLIC "-//W3C//DTD SVG 1.1//EN"
  "http://www.w3.org/Graphics/SVG/1.1/DTD/svg11.dtd">
<svg xmlns:xlink="http://www.w3.org/1999/xlink" width="419.305pt" height="319.962pt" viewBox="0 0 419.305 319.962" xmlns="http://www.w3.org/2000/svg" version="1.1">
 <metadata>
  <rdf:RDF xmlns:dc="http://purl.org/dc/elements/1.1/" xmlns:cc="http://creativecommons.org/ns#" xmlns:rdf="http://www.w3.org/1999/02/22-rdf-syntax-ns#">
   <cc:Work>
    <dc:type rdf:resource="http://purl.org/dc/dcmitype/StillImage"/>
    <dc:date>2022-09-28T20:37:35.068291</dc:date>
    <dc:format>image/svg+xml</dc:format>
    <dc:creator>
     <cc:Agent>
      <dc:title>Matplotlib v3.5.2, https://matplotlib.org/</dc:title>
     </cc:Agent>
    </dc:creator>
   </cc:Work>
  </rdf:RDF>
 </metadata>
 <defs>
  <style type="text/css">*{stroke-linejoin: round; stroke-linecap: butt}</style>
 </defs>
 <g id="figure_1">
  <g id="patch_1">
   <path d="M 0 319.962 
L 419.305 319.962 
L 419.305 0 
L 0 0 
z
" style="fill: #ffffff"/>
  </g>
  <g id="axes_1">
   <g id="patch_2">
    <path d="M 54.985 273.312 
L 412.105 273.312 
L 412.105 7.2 
L 54.985 7.2 
z
" style="fill: #ffffff"/>
   </g>
   <g id="patch_3">
    <path d="M 71.217727 273.312 
L 81.363182 273.312 
L 81.363182 35.802514 
L 71.217727 35.802514 
z
" clip-path="url(#p2ba698e07c)" style="fill: #1f77b4; fill-opacity: 0.75; stroke: #000000; stroke-linejoin: miter"/>
   </g>
   <g id="patch_4">
    <path d="M 81.363182 273.312 
L 91.508636 273.312 
L 91.508636 19.872 
L 81.363182 19.872 
z
" clip-path="url(#p2ba698e07c)" style="fill: #1f77b4; fill-opacity: 0.75; stroke: #000000; stroke-linejoin: miter"/>
   </g>
   <g id="patch_5">
    <path d="M 91.508636 273.312 
L 101.65409 273.312 
L 101.65409 45.940114 
L 91.508636 45.940114 
z
" clip-path="url(#p2ba698e07c)" style="fill: #1f77b4; fill-opacity: 0.75; stroke: #000000; stroke-linejoin: miter"/>
   </g>
   <g id="patch_6">
    <path d="M 101.65409 273.312 
L 111.799545 273.312 
L 111.799545 103.869257 
L 101.65409 103.869257 
z
" clip-path="url(#p2ba698e07c)" style="fill: #1f77b4; fill-opacity: 0.75; stroke: #000000; stroke-linejoin: miter"/>
   </g>
   <g id="patch_7">
    <path d="M 111.799545 273.312 
L 121.944999 273.312 
L 121.944999 108.213943 
L 111.799545 108.213943 
z
" clip-path="url(#p2ba698e07c)" style="fill: #1f77b4; fill-opacity: 0.75; stroke: #000000; stroke-linejoin: miter"/>
   </g>
   <g id="patch_8">
    <path d="M 121.944999 273.312 
L 132.090453 273.312 
L 132.090453 164.694857 
L 121.944999 164.694857 
z
" clip-path="url(#p2ba698e07c)" style="fill: #1f77b4; fill-opacity: 0.75; stroke: #000000; stroke-linejoin: miter"/>
   </g>
   <g id="patch_9">
    <path d="M 132.090453 273.312 
L 142.235908 273.312 
L 142.235908 145.867886 
L 132.090453 145.867886 
z
" clip-path="url(#p2ba698e07c)" style="fill: #1f77b4; fill-opacity: 0.75; stroke: #000000; stroke-linejoin: miter"/>
   </g>
   <g id="patch_10">
    <path d="M 142.235908 273.312 
L 152.381362 273.312 
L 152.381362 167.591314 
L 142.235908 167.591314 
z
" clip-path="url(#p2ba698e07c)" style="fill: #1f77b4; fill-opacity: 0.75; stroke: #000000; stroke-linejoin: miter"/>
   </g>
   <g id="patch_11">
    <path d="M 152.381362 273.312 
L 162.526816 273.312 
L 162.526816 218.279314 
L 152.381362 218.279314 
z
" clip-path="url(#p2ba698e07c)" style="fill: #1f77b4; fill-opacity: 0.75; stroke: #000000; stroke-linejoin: miter"/>
   </g>
   <g id="patch_12">
    <path d="M 162.526816 273.312 
L 172.672271 273.312 
L 172.672271 216.831086 
L 162.526816 216.831086 
z
" clip-path="url(#p2ba698e07c)" style="fill: #1f77b4; fill-opacity: 0.75; stroke: #000000; stroke-linejoin: miter"/>
   </g>
   <g id="patch_13">
    <path d="M 172.672271 273.312 
L 182.817732 273.312 
L 182.817732 226.968686 
L 172.672271 226.968686 
z
" clip-path="url(#p2ba698e07c)" style="fill: #1f77b4; fill-opacity: 0.75; stroke: #000000; stroke-linejoin: miter"/>
   </g>
   <g id="patch_14">
    <path d="M 182.817732 273.312 
L 192.963186 273.312 
L 192.963186 229.865143 
L 182.817732 229.865143 
z
" clip-path="url(#p2ba698e07c)" style="fill: #1f77b4; fill-opacity: 0.75; stroke: #000000; stroke-linejoin: miter"/>
   </g>
   <g id="patch_15">
    <path d="M 192.963186 273.312 
L 203.10864 273.312 
L 203.10864 245.795657 
L 192.963186 245.795657 
z
" clip-path="url(#p2ba698e07c)" style="fill: #1f77b4; fill-opacity: 0.75; stroke: #000000; stroke-linejoin: miter"/>
   </g>
   <g id="patch_16">
    <path d="M 203.10864 273.312 
L 213.254095 273.312 
L 213.254095 251.588571 
L 203.10864 251.588571 
z
" clip-path="url(#p2ba698e07c)" style="fill: #1f77b4; fill-opacity: 0.75; stroke: #000000; stroke-linejoin: miter"/>
   </g>
   <g id="patch_17">
    <path d="M 213.254095 273.312 
L 223.399549 273.312 
L 223.399549 240.002743 
L 213.254095 240.002743 
z
" clip-path="url(#p2ba698e07c)" style="fill: #1f77b4; fill-opacity: 0.75; stroke: #000000; stroke-linejoin: miter"/>
   </g>
   <g id="patch_18">
    <path d="M 223.399549 273.312 
L 233.545003 273.312 
L 233.545003 260.277943 
L 223.399549 260.277943 
z
" clip-path="url(#p2ba698e07c)" style="fill: #1f77b4; fill-opacity: 0.75; stroke: #000000; stroke-linejoin: miter"/>
   </g>
   <g id="patch_19">
    <path d="M 233.545003 273.312 
L 243.690458 273.312 
L 243.690458 263.1744 
L 233.545003 263.1744 
z
" clip-path="url(#p2ba698e07c)" style="fill: #1f77b4; fill-opacity: 0.75; stroke: #000000; stroke-linejoin: miter"/>
   </g>
   <g id="patch_20">
    <path d="M 243.690458 273.312 
L 253.835912 273.312 
L 253.835912 266.070857 
L 243.690458 266.070857 
z
" clip-path="url(#p2ba698e07c)" style="fill: #1f77b4; fill-opacity: 0.75; stroke: #000000; stroke-linejoin: miter"/>
   </g>
   <g id="patch_21">
    <path d="M 253.835912 273.312 
L 263.981366 273.312 
L 263.981366 266.070857 
L 253.835912 266.070857 
z
" clip-path="url(#p2ba698e07c)" style="fill: #1f77b4; fill-opacity: 0.75; stroke: #000000; stroke-linejoin: miter"/>
   </g>
   <g id="patch_22">
    <path d="M 263.981366 273.312 
L 274.126821 273.312 
L 274.126821 267.519086 
L 263.981366 267.519086 
z
" clip-path="url(#p2ba698e07c)" style="fill: #1f77b4; fill-opacity: 0.75; stroke: #000000; stroke-linejoin: miter"/>
   </g>
   <g id="patch_23">
    <path d="M 274.126821 273.312 
L 284.272275 273.312 
L 284.272275 266.070857 
L 274.126821 266.070857 
z
" clip-path="url(#p2ba698e07c)" style="fill: #1f77b4; fill-opacity: 0.75; stroke: #000000; stroke-linejoin: miter"/>
   </g>
   <g id="patch_24">
    <path d="M 284.272275 273.312 
L 294.417729 273.312 
L 294.417729 267.519086 
L 284.272275 267.519086 
z
" clip-path="url(#p2ba698e07c)" style="fill: #1f77b4; fill-opacity: 0.75; stroke: #000000; stroke-linejoin: miter"/>
   </g>
   <g id="patch_25">
    <path d="M 294.417729 273.312 
L 304.563184 273.312 
L 304.563184 271.863771 
L 294.417729 271.863771 
z
" clip-path="url(#p2ba698e07c)" style="fill: #1f77b4; fill-opacity: 0.75; stroke: #000000; stroke-linejoin: miter"/>
   </g>
   <g id="patch_26">
    <path d="M 304.563184 273.312 
L 314.708638 273.312 
L 314.708638 271.863771 
L 304.563184 271.863771 
z
" clip-path="url(#p2ba698e07c)" style="fill: #1f77b4; fill-opacity: 0.75; stroke: #000000; stroke-linejoin: miter"/>
   </g>
   <g id="patch_27">
    <path d="M 314.708638 273.312 
L 324.854092 273.312 
L 324.854092 271.863771 
L 314.708638 271.863771 
z
" clip-path="url(#p2ba698e07c)" style="fill: #1f77b4; fill-opacity: 0.75; stroke: #000000; stroke-linejoin: miter"/>
   </g>
   <g id="patch_28">
    <path d="M 324.854092 273.312 
L 334.999547 273.312 
L 334.999547 268.967314 
L 324.854092 268.967314 
z
" clip-path="url(#p2ba698e07c)" style="fill: #1f77b4; fill-opacity: 0.75; stroke: #000000; stroke-linejoin: miter"/>
   </g>
   <g id="patch_29">
    <path d="M 334.999547 273.312 
L 345.145001 273.312 
L 345.145001 271.863771 
L 334.999547 271.863771 
z
" clip-path="url(#p2ba698e07c)" style="fill: #1f77b4; fill-opacity: 0.75; stroke: #000000; stroke-linejoin: miter"/>
   </g>
   <g id="patch_30">
    <path d="M 345.145001 273.312 
L 355.290455 273.312 
L 355.290455 273.312 
L 345.145001 273.312 
z
" clip-path="url(#p2ba698e07c)" style="fill: #1f77b4; fill-opacity: 0.75; stroke: #000000; stroke-linejoin: miter"/>
   </g>
   <g id="patch_31">
    <path d="M 355.290455 273.312 
L 365.43591 273.312 
L 365.43591 273.312 
L 355.290455 273.312 
z
" clip-path="url(#p2ba698e07c)" style="fill: #1f77b4; fill-opacity: 0.75; stroke: #000000; stroke-linejoin: miter"/>
   </g>
   <g id="patch_32">
    <path d="M 365.43591 273.312 
L 375.581364 273.312 
L 375.581364 273.312 
L 365.43591 273.312 
z
" clip-path="url(#p2ba698e07c)" style="fill: #1f77b4; fill-opacity: 0.75; stroke: #000000; stroke-linejoin: miter"/>
   </g>
   <g id="patch_33">
    <path d="M 375.581364 273.312 
L 385.726818 273.312 
L 385.726818 273.312 
L 375.581364 273.312 
z
" clip-path="url(#p2ba698e07c)" style="fill: #1f77b4; fill-opacity: 0.75; stroke: #000000; stroke-linejoin: miter"/>
   </g>
   <g id="patch_34">
    <path d="M 385.726818 273.312 
L 395.872273 273.312 
L 395.872273 271.863771 
L 385.726818 271.863771 
z
" clip-path="url(#p2ba698e07c)" style="fill: #1f77b4; fill-opacity: 0.75; stroke: #000000; stroke-linejoin: miter"/>
   </g>
   <g id="matplotlib.axis_1">
    <g id="xtick_1">
     <g id="line2d_1">
      <defs>
       <path id="m83223d706e" d="M 0 0 
L 0 3.5 
" style="stroke: #000000; stroke-width: 0.8"/>
      </defs>
      <g>
       <use xlink:href="#m83223d706e" x="71.075531" y="273.312" style="stroke: #000000; stroke-width: 0.8"/>
      </g>
     </g>
     <g id="text_1">
      <!-- 0 -->
      <g transform="translate(67.315531 291.417)scale(0.16 -0.16)">
       <defs>
        <path id="LMSans17-Regular-30" d="M 2758 2093 
C 2758 2458 2752 3136 2490 3661 
C 2227 4166 1805 4301 1504 4301 
C 1069 4301 698 4045 506 3635 
C 301 3206 243 2765 243 2093 
C 243 1632 262 1069 493 576 
C 755 32 1197 -102 1498 -102 
C 1894 -102 2278 109 2496 550 
C 2720 1011 2758 1517 2758 2093 
z
M 2272 2163 
C 2272 1568 2272 288 1498 288 
C 1011 288 864 845 819 1030 
C 742 1350 730 1658 730 2163 
C 730 2560 730 3008 851 3360 
C 998 3770 1254 3910 1498 3910 
C 1971 3910 2125 3437 2176 3270 
C 2272 2931 2272 2534 2272 2163 
z
" transform="scale(0.015625)"/>
       </defs>
       <use xlink:href="#LMSans17-Regular-30"/>
      </g>
     </g>
    </g>
    <g id="xtick_2">
     <g id="line2d_2">
      <g>
       <use xlink:href="#m83223d706e" x="125.16" y="273.312" style="stroke: #000000; stroke-width: 0.8"/>
      </g>
     </g>
     <g id="text_2">
      <!-- 1 -->
      <g transform="translate(121.4 291.417)scale(0.16 -0.16)">
       <defs>
        <path id="LMSans17-Regular-31" d="M 2573 0 
L 2573 371 
L 1818 371 
L 1818 4301 
L 1696 4301 
C 1350 3942 947 3891 538 3878 
L 538 3507 
C 723 3514 1024 3526 1325 3661 
L 1325 371 
L 570 371 
L 570 0 
L 2573 0 
z
" transform="scale(0.015625)"/>
       </defs>
       <use xlink:href="#LMSans17-Regular-31"/>
      </g>
     </g>
    </g>
    <g id="xtick_3">
     <g id="line2d_3">
      <g>
       <use xlink:href="#m83223d706e" x="179.244469" y="273.312" style="stroke: #000000; stroke-width: 0.8"/>
      </g>
     </g>
     <g id="text_3">
      <!-- 2 -->
      <g transform="translate(175.484469 291.417)scale(0.16 -0.16)">
       <defs>
        <path id="LMSans17-Regular-32" d="M 2701 0 
L 2701 435 
L 1613 435 
C 1536 435 1459 429 1382 429 
L 742 429 
L 742 435 
L 1651 1357 
C 1830 1542 2099 1766 2285 1990 
C 2464 2208 2701 2515 2701 2963 
C 2701 3667 2227 4301 1421 4301 
C 787 4301 422 3904 250 3283 
L 499 2938 
C 640 3520 838 3891 1338 3891 
C 1888 3891 2195 3443 2195 2950 
C 2195 2362 1747 1907 1408 1568 
L 301 410 
L 301 0 
L 2701 0 
z
" transform="scale(0.015625)"/>
       </defs>
       <use xlink:href="#LMSans17-Regular-32"/>
      </g>
     </g>
    </g>
    <g id="xtick_4">
     <g id="line2d_4">
      <g>
       <use xlink:href="#m83223d706e" x="233.328939" y="273.312" style="stroke: #000000; stroke-width: 0.8"/>
      </g>
     </g>
     <g id="text_4">
      <!-- 3 -->
      <g transform="translate(229.568939 291.417)scale(0.16 -0.16)">
       <defs>
        <path id="LMSans17-Regular-33" d="M 2752 1178 
C 2752 1683 2400 2106 1920 2266 
C 2304 2477 2586 2874 2586 3334 
C 2586 3872 2093 4301 1491 4301 
C 941 4301 512 3962 333 3597 
C 378 3533 493 3347 550 3251 
C 691 3629 1056 3910 1485 3910 
C 1843 3910 2080 3674 2080 3334 
C 2080 2982 1856 2598 1478 2509 
C 1453 2509 1056 2470 1005 2464 
L 1005 2074 
L 1440 2074 
C 2042 2074 2214 1549 2214 1184 
C 2214 685 1933 294 1472 294 
C 1114 294 608 474 320 947 
C 275 723 275 710 250 557 
C 550 115 1037 -102 1485 -102 
C 2214 -102 2752 506 2752 1178 
z
" transform="scale(0.015625)"/>
       </defs>
       <use xlink:href="#LMSans17-Regular-33"/>
      </g>
     </g>
    </g>
    <g id="xtick_5">
     <g id="line2d_5">
      <g>
       <use xlink:href="#m83223d706e" x="287.413408" y="273.312" style="stroke: #000000; stroke-width: 0.8"/>
      </g>
     </g>
     <g id="text_5">
      <!-- 4 -->
      <g transform="translate(283.653408 291.417)scale(0.16 -0.16)">
       <defs>
        <path id="LMSans17-Regular-34" d="M 2835 1094 
L 2835 1485 
L 2253 1485 
L 2253 4198 
L 1690 4198 
L 166 1485 
L 166 1094 
L 1747 1094 
L 1747 0 
L 2253 0 
L 2253 1094 
L 2835 1094 
z
M 1766 1485 
L 659 1485 
C 1030 2138 1760 3456 1766 3904 
L 1766 1485 
z
" transform="scale(0.015625)"/>
       </defs>
       <use xlink:href="#LMSans17-Regular-34"/>
      </g>
     </g>
    </g>
    <g id="xtick_6">
     <g id="line2d_6">
      <g>
       <use xlink:href="#m83223d706e" x="341.497878" y="273.312" style="stroke: #000000; stroke-width: 0.8"/>
      </g>
     </g>
     <g id="text_6">
      <!-- 5 -->
      <g transform="translate(337.737878 291.417)scale(0.16 -0.16)">
       <defs>
        <path id="LMSans17-Regular-35" d="M 2701 1299 
C 2701 2086 2182 2694 1562 2694 
C 1338 2694 1120 2618 934 2464 
L 934 3789 
L 2502 3789 
L 2502 4198 
L 467 4198 
L 467 1837 
L 896 1837 
C 1011 2106 1248 2304 1555 2304 
C 1843 2304 2163 2048 2163 1312 
C 2163 525 1709 294 1376 294 
C 966 294 589 544 422 890 
L 218 531 
C 512 77 992 -102 1376 -102 
C 2118 -102 2701 531 2701 1299 
z
" transform="scale(0.015625)"/>
       </defs>
       <use xlink:href="#LMSans17-Regular-35"/>
      </g>
     </g>
    </g>
    <g id="xtick_7">
     <g id="line2d_7">
      <g>
       <use xlink:href="#m83223d706e" x="395.582347" y="273.312" style="stroke: #000000; stroke-width: 0.8"/>
      </g>
     </g>
     <g id="text_7">
      <!-- 6 -->
      <g transform="translate(391.822347 291.417)scale(0.16 -0.16)">
       <defs>
        <path id="LMSans17-Regular-36" d="M 2752 1421 
C 2752 2214 2362 2918 1779 2918 
C 1357 2918 992 2694 768 2413 
C 832 3315 1254 3910 1862 3910 
C 2029 3910 2246 3885 2496 3776 
L 2496 4173 
C 2227 4282 2035 4301 1856 4301 
C 1024 4301 250 3430 250 2054 
C 250 294 986 -102 1510 -102 
C 1798 -102 2086 -13 2362 307 
C 2643 646 2752 928 2752 1421 
z
M 2246 1421 
C 2246 1171 2246 922 2099 666 
C 1978 467 1818 294 1510 294 
C 902 294 800 1146 774 1402 
C 774 1453 774 1485 781 1581 
C 781 2080 1069 2528 1536 2528 
C 1837 2528 1990 2368 2106 2170 
C 2240 1920 2246 1683 2246 1421 
z
" transform="scale(0.015625)"/>
       </defs>
       <use xlink:href="#LMSans17-Regular-36"/>
      </g>
     </g>
    </g>
    <g id="text_8">
     <!-- dif -->
     <g transform="translate(225.5925 309.642)scale(0.16 -0.16)">
      <defs>
       <path id="LMSans17-Regular-64" d="M 2611 0 
L 2611 4442 
L 2138 4442 
L 2138 2483 
C 1939 2650 1613 2803 1254 2803 
C 672 2803 211 2170 211 1376 
C 211 582 666 -51 1235 -51 
C 1677 -51 1971 186 2125 320 
L 2125 0 
L 2611 0 
z
M 2125 858 
C 2125 768 2125 672 1926 499 
C 1798 390 1645 339 1498 339 
C 1152 339 698 595 698 1370 
C 698 2176 1210 2413 1562 2413 
C 1798 2413 1990 2298 2125 2106 
L 2125 858 
z
" transform="scale(0.015625)"/>
       <path id="LMSans17-Regular-69" d="M 947 0 
L 947 2752 
L 474 2752 
L 474 0 
L 947 0 
z
M 986 3610 
L 986 4147 
L 448 4147 
L 448 3610 
L 986 3610 
z
" transform="scale(0.015625)"/>
       <path id="LMSans17-Regular-66" d="M 2080 4019 
L 2080 4442 
C 1933 4474 1754 4493 1613 4493 
C 1018 4493 602 4006 602 3373 
L 602 2752 
L 160 2752 
L 160 2381 
L 602 2381 
L 602 0 
L 1075 0 
L 1075 2381 
L 1722 2381 
L 1722 2752 
L 1062 2752 
L 1062 3571 
C 1062 4026 1408 4102 1606 4102 
C 1670 4102 1850 4102 2080 4019 
z
" transform="scale(0.015625)"/>
      </defs>
      <use xlink:href="#LMSans17-Regular-64"/>
      <use xlink:href="#LMSans17-Regular-69" x="48.399994"/>
      <use xlink:href="#LMSans17-Regular-66" x="70.699982"/>
     </g>
    </g>
   </g>
   <g id="matplotlib.axis_2">
    <g id="ytick_1">
     <g id="line2d_8">
      <defs>
       <path id="mff7d35ca74" d="M 0 0 
L -3.5 0 
" style="stroke: #000000; stroke-width: 0.8"/>
      </defs>
      <g>
       <use xlink:href="#mff7d35ca74" x="54.985" y="273.312" style="stroke: #000000; stroke-width: 0.8"/>
      </g>
     </g>
     <g id="text_9">
      <!-- 0 -->
      <g transform="translate(40.465 278.8645)scale(0.16 -0.16)">
       <use xlink:href="#LMSans17-Regular-30"/>
      </g>
     </g>
    </g>
    <g id="ytick_2">
     <g id="line2d_9">
      <g>
       <use xlink:href="#mff7d35ca74" x="54.985" y="237.106286" style="stroke: #000000; stroke-width: 0.8"/>
      </g>
     </g>
     <g id="text_10">
      <!-- 25 -->
      <g transform="translate(32.945 242.658786)scale(0.16 -0.16)">
       <use xlink:href="#LMSans17-Regular-32"/>
       <use xlink:href="#LMSans17-Regular-35" x="46.999985"/>
      </g>
     </g>
    </g>
    <g id="ytick_3">
     <g id="line2d_10">
      <g>
       <use xlink:href="#mff7d35ca74" x="54.985" y="200.900571" style="stroke: #000000; stroke-width: 0.8"/>
      </g>
     </g>
     <g id="text_11">
      <!-- 50 -->
      <g transform="translate(32.945 206.453071)scale(0.16 -0.16)">
       <use xlink:href="#LMSans17-Regular-35"/>
       <use xlink:href="#LMSans17-Regular-30" x="46.999985"/>
      </g>
     </g>
    </g>
    <g id="ytick_4">
     <g id="line2d_11">
      <g>
       <use xlink:href="#mff7d35ca74" x="54.985" y="164.694857" style="stroke: #000000; stroke-width: 0.8"/>
      </g>
     </g>
     <g id="text_12">
      <!-- 75 -->
      <g transform="translate(32.945 170.247357)scale(0.16 -0.16)">
       <defs>
        <path id="LMSans17-Regular-37" d="M 2752 3782 
L 2752 4198 
L 250 4198 
L 250 3763 
L 1389 3763 
C 1466 3763 1542 3770 1619 3770 
L 2355 3770 
C 1440 2701 915 1350 915 -51 
L 1427 -51 
C 1427 1306 1875 2682 2752 3782 
z
" transform="scale(0.015625)"/>
       </defs>
       <use xlink:href="#LMSans17-Regular-37"/>
       <use xlink:href="#LMSans17-Regular-35" x="46.999985"/>
      </g>
     </g>
    </g>
    <g id="ytick_5">
     <g id="line2d_12">
      <g>
       <use xlink:href="#mff7d35ca74" x="54.985" y="128.489143" style="stroke: #000000; stroke-width: 0.8"/>
      </g>
     </g>
     <g id="text_13">
      <!-- 100 -->
      <g transform="translate(25.425 134.041643)scale(0.16 -0.16)">
       <use xlink:href="#LMSans17-Regular-31"/>
       <use xlink:href="#LMSans17-Regular-30" x="46.999985"/>
       <use xlink:href="#LMSans17-Regular-30" x="93.999969"/>
      </g>
     </g>
    </g>
    <g id="ytick_6">
     <g id="line2d_13">
      <g>
       <use xlink:href="#mff7d35ca74" x="54.985" y="92.283429" style="stroke: #000000; stroke-width: 0.8"/>
      </g>
     </g>
     <g id="text_14">
      <!-- 125 -->
      <g transform="translate(25.425 97.835929)scale(0.16 -0.16)">
       <use xlink:href="#LMSans17-Regular-31"/>
       <use xlink:href="#LMSans17-Regular-32" x="46.999985"/>
       <use xlink:href="#LMSans17-Regular-35" x="93.999969"/>
      </g>
     </g>
    </g>
    <g id="ytick_7">
     <g id="line2d_14">
      <g>
       <use xlink:href="#mff7d35ca74" x="54.985" y="56.077714" style="stroke: #000000; stroke-width: 0.8"/>
      </g>
     </g>
     <g id="text_15">
      <!-- 150 -->
      <g transform="translate(25.425 61.630214)scale(0.16 -0.16)">
       <use xlink:href="#LMSans17-Regular-31"/>
       <use xlink:href="#LMSans17-Regular-35" x="46.999985"/>
       <use xlink:href="#LMSans17-Regular-30" x="93.999969"/>
      </g>
     </g>
    </g>
    <g id="ytick_8">
     <g id="line2d_15">
      <g>
       <use xlink:href="#mff7d35ca74" x="54.985" y="19.872" style="stroke: #000000; stroke-width: 0.8"/>
      </g>
     </g>
     <g id="text_16">
      <!-- 175 -->
      <g transform="translate(25.425 25.4245)scale(0.16 -0.16)">
       <use xlink:href="#LMSans17-Regular-31"/>
       <use xlink:href="#LMSans17-Regular-37" x="46.999985"/>
       <use xlink:href="#LMSans17-Regular-35" x="93.999969"/>
      </g>
     </g>
    </g>
    <g id="text_17">
     <!-- Count -->
     <g transform="translate(18.305 159.2885)rotate(-90)scale(0.16 -0.16)">
      <defs>
       <path id="LMSans17-Regular-43" d="M 3501 301 
L 3462 736 
C 3290 614 3123 493 2918 429 
C 2720 365 2515 358 2310 358 
C 1920 358 1568 582 1338 896 
C 1050 1274 922 1734 922 2195 
C 922 2662 1050 3130 1338 3501 
C 1568 3808 1920 4038 2310 4038 
C 2496 4038 2675 4019 2848 3962 
C 3027 3910 3187 3814 3347 3718 
L 3437 4230 
C 3258 4301 3072 4358 2880 4397 
C 2694 4435 2502 4448 2310 4448 
C 1786 4448 1299 4192 954 3789 
C 576 3347 390 2778 390 2195 
C 390 1619 576 1050 954 608 
C 1299 205 1786 -51 2310 -51 
C 2522 -51 2733 -45 2938 13 
C 3142 77 3322 186 3501 301 
z
" transform="scale(0.015625)"/>
       <path id="LMSans17-Regular-6f" d="M 2829 1370 
C 2829 2189 2221 2829 1504 2829 
C 768 2829 173 2170 173 1370 
C 173 557 787 -51 1498 -51 
C 2227 -51 2829 576 2829 1370 
z
M 2342 1421 
C 2342 698 1926 346 1498 346 
C 1050 346 659 723 659 1421 
C 659 2163 1114 2432 1498 2432 
C 1914 2432 2342 2138 2342 1421 
z
" transform="scale(0.015625)"/>
       <path id="LMSans17-Regular-75" d="M 2618 0 
L 2618 2752 
L 2131 2752 
L 2131 986 
C 2131 512 1786 320 1421 320 
C 998 320 960 461 960 723 
L 960 2752 
L 474 2752 
L 474 691 
C 474 192 646 -51 1088 -51 
C 1306 -51 1798 0 2144 320 
L 2144 0 
L 2618 0 
z
" transform="scale(0.015625)"/>
       <path id="LMSans17-Regular-6e" d="M 2618 0 
L 2618 1869 
C 2618 2272 2522 2803 1798 2803 
C 1389 2803 1120 2592 941 2374 
L 941 2771 
L 474 2771 
L 474 0 
L 960 0 
L 960 1549 
C 960 1952 1114 2413 1549 2413 
C 2112 2413 2131 2035 2131 1818 
L 2131 0 
L 2618 0 
z
" transform="scale(0.015625)"/>
       <path id="LMSans17-Regular-74" d="M 2003 186 
L 1901 563 
C 1747 429 1562 352 1363 352 
C 1082 352 1069 710 1069 870 
L 1069 2381 
L 1901 2381 
L 1901 2752 
L 1069 2752 
L 1069 3539 
L 614 3539 
L 614 2752 
L 109 2752 
L 109 2381 
L 602 2381 
L 602 762 
C 602 397 685 -51 1107 -51 
C 1427 -51 1722 38 2003 186 
z
" transform="scale(0.015625)"/>
      </defs>
      <use xlink:href="#LMSans17-Regular-43"/>
      <use xlink:href="#LMSans17-Regular-6f" x="60.099991"/>
      <use xlink:href="#LMSans17-Regular-75" x="107.099976"/>
      <use xlink:href="#LMSans17-Regular-6e" x="155.499969"/>
      <use xlink:href="#LMSans17-Regular-74" x="203.899963"/>
     </g>
    </g>
   </g>
   <g id="patch_35">
    <path d="M 54.985 273.312 
L 54.985 7.2 
" style="fill: none; stroke: #000000; stroke-width: 0.8; stroke-linejoin: miter; stroke-linecap: square"/>
   </g>
   <g id="patch_36">
    <path d="M 412.105 273.312 
L 412.105 7.2 
" style="fill: none; stroke: #000000; stroke-width: 0.8; stroke-linejoin: miter; stroke-linecap: square"/>
   </g>
   <g id="patch_37">
    <path d="M 54.985 273.312 
L 412.105 273.312 
" style="fill: none; stroke: #000000; stroke-width: 0.8; stroke-linejoin: miter; stroke-linecap: square"/>
   </g>
   <g id="patch_38">
    <path d="M 54.985 7.2 
L 412.105 7.2 
" style="fill: none; stroke: #000000; stroke-width: 0.8; stroke-linejoin: miter; stroke-linecap: square"/>
   </g>
  </g>
 </g>
 <defs>
  <clipPath id="p2ba698e07c">
   <rect x="54.985" y="7.2" width="357.12" height="266.112"/>
  </clipPath>
 </defs>
</svg>
