<?xml version="1.0" encoding="utf-8" standalone="no"?>
<!DOCTYPE svg PUBLIC "-//W3C//DTD SVG 1.1//EN"
  "http://www.w3.org/Graphics/SVG/1.1/DTD/svg11.dtd">
<svg xmlns:xlink="http://www.w3.org/1999/xlink" width="505.825387pt" height="169.4785pt" viewBox="0 0 505.825387 169.4785" xmlns="http://www.w3.org/2000/svg" version="1.1">
 <metadata>
  <rdf:RDF xmlns:dc="http://purl.org/dc/elements/1.1/" xmlns:cc="http://creativecommons.org/ns#" xmlns:rdf="http://www.w3.org/1999/02/22-rdf-syntax-ns#">
   <cc:Work>
    <dc:type rdf:resource="http://purl.org/dc/dcmitype/StillImage"/>
    <dc:date>2022-09-27T02:51:45.500767</dc:date>
    <dc:format>image/svg+xml</dc:format>
    <dc:creator>
     <cc:Agent>
      <dc:title>Matplotlib v3.5.2, https://matplotlib.org/</dc:title>
     </cc:Agent>
    </dc:creator>
   </cc:Work>
  </rdf:RDF>
 </metadata>
 <defs>
  <style type="text/css">*{stroke-linejoin: round; stroke-linecap: butt}</style>
 </defs>
 <g id="figure_1">
  <g id="patch_1">
   <path d="M 0 169.4785 
L 505.825387 169.4785 
L 505.825387 0 
L 0 0 
z
" style="fill: #ffffff"/>
  </g>
  <g id="axes_1">
   <g id="patch_2">
    <path d="M 88.826742 50.859289 
C 85.402424 47.434972 81.440267 44.5945 77.097845 42.450839 
C 72.755424 40.307179 68.091079 38.889131 63.290313 38.253091 
C 58.489548 37.617051 53.616858 37.771564 48.866034 38.710485 
C 44.115211 39.649406 39.550079 41.360122 35.352196 43.774595 
C 31.154313 46.189068 27.380078 49.274861 24.179592 52.909252 
C 20.979106 56.543642 18.395369 60.677801 16.531135 65.147313 
C 14.666902 69.616824 13.547218 74.361641 13.216615 79.193059 
C 12.886011 84.024477 13.34893 88.877588 14.586959 93.55938 
C 15.824989 98.241173 17.821497 102.688749 20.497082 106.725225 
C 23.172667 110.761702 26.491383 114.332851 30.321243 117.296645 
C 34.151102 120.260439 38.440652 122.577061 43.019295 124.154377 
C 47.597938 125.731694 52.404161 126.548513 57.246819 126.572352 
C 62.089477 126.59619 66.903508 125.826726 71.497458 124.294563 
C 76.091408 122.762399 80.403557 120.48812 84.262409 117.562174 
C 88.121261 114.636227 91.474973 111.097924 94.190167 107.087984 
C 96.905361 103.078044 98.945559 98.650339 100.22962 93.980961 
L 57.465142 82.220889 
L 88.826742 50.859289 
z
" style="fill: #20213e; opacity: 0.5; stroke: #20213e; stroke-linejoin: miter"/>
   </g>
   <g id="patch_3">
    <path d="M 108.805256 91.713263 
C 110.882511 84.159509 110.921748 76.188535 108.91896 68.614698 
C 106.916172 61.04086 102.941969 54.13118 97.402375 48.591588 
L 66.040778 79.953191 
L 108.805256 91.713263 
z
" style="fill: #341616; opacity: 0.5; stroke: #341616; stroke-linejoin: miter"/>
   </g>
   <g id="patch_4">
    <path d="M 89.713782 49.972249 
C 86.289464 46.547932 82.327307 43.70746 77.984885 41.563799 
C 73.642464 39.420139 68.978119 38.002091 64.177353 37.366051 
C 59.376588 36.730011 54.503898 36.884524 49.753074 37.823445 
C 45.002251 38.762366 40.437119 40.473082 36.239236 42.887555 
C 32.041353 45.302028 28.267118 48.387821 25.066632 52.022212 
C 21.866146 55.656602 19.282409 59.790761 17.418175 64.260273 
C 15.553942 68.729784 14.434258 73.474601 14.103655 78.306019 
C 13.773051 83.137437 14.23597 87.990548 15.473999 92.67234 
C 16.712029 97.354133 18.708537 101.801709 21.384122 105.838185 
C 24.059707 109.874662 27.378423 113.445811 31.208283 116.409605 
C 35.038142 119.373399 39.327692 121.690021 43.906335 123.267337 
C 48.484978 124.844654 53.291201 125.661473 58.133859 125.685312 
C 62.976517 125.70915 67.790548 124.939686 72.384498 123.407523 
C 76.978448 121.875359 81.290597 119.60108 85.149449 116.675134 
C 89.008301 113.749187 92.362013 110.210884 95.077207 106.200944 
C 97.792401 102.191004 99.832599 97.763299 101.11666 93.093921 
L 58.352182 81.333849 
L 89.713782 49.972249 
z
" style="fill: #6b6ecf"/>
   </g>
   <g id="patch_5">
    <path d="M 109.692296 90.826223 
C 111.769551 83.272469 111.808788 75.301495 109.806 67.727658 
C 107.803212 60.15382 103.829009 53.24414 98.289415 47.704548 
L 66.927818 79.066151 
L 109.692296 90.826223 
z
" style="fill: #ad494a"/>
   </g>
   <g id="matplotlib.axis_1"/>
   <g id="matplotlib.axis_2"/>
   <g id="text_1">
    <!-- 83% -->
    <g style="fill: #ffffff" transform="translate(24.109022 90.136944)scale(0.08 -0.08)">
     <defs>
      <path id="LMSans10-Bold-38" d="M 3219 1299 
C 3219 1882 2944 2246 2432 2394 
C 3046 2598 3123 3046 3123 3334 
C 3123 4275 2522 4582 1760 4582 
C 1062 4582 390 4333 390 3334 
C 390 2995 506 2586 1082 2394 
C 422 2208 294 1702 294 1299 
C 294 301 832 -141 1754 -141 
C 2720 -141 3219 339 3219 1299 
z
M 2304 3328 
C 2304 2957 2298 2630 1760 2630 
C 1222 2630 1210 2944 1210 3328 
C 1210 3770 1248 4013 1754 4013 
C 2259 4013 2304 3782 2304 3328 
z
M 2330 1312 
C 2330 832 2317 461 1760 461 
C 1197 461 1184 819 1184 1312 
C 1184 1728 1184 2170 1754 2170 
C 2330 2170 2330 1734 2330 1312 
z
" transform="scale(0.015625)"/>
      <path id="LMSans10-Bold-33" d="M 3219 1299 
C 3219 1875 2912 2266 2336 2413 
C 2854 2694 3027 3110 3027 3475 
C 3027 4499 2112 4582 1696 4582 
C 819 4582 390 3955 390 3904 
C 390 3866 435 3808 435 3808 
L 614 3552 
C 666 3475 710 3475 710 3475 
C 755 3475 768 3501 800 3546 
C 1126 4013 1581 4013 1664 4013 
C 2074 4013 2131 3802 2131 3488 
C 2131 3398 2131 3091 1933 2848 
C 1779 2669 1619 2656 1427 2643 
C 1357 2637 1235 2630 1216 2618 
C 1171 2598 1171 2560 1171 2458 
L 1171 2342 
C 1171 2176 1178 2170 1344 2170 
L 1626 2170 
C 2208 2170 2278 1805 2278 1312 
C 2278 883 2234 461 1651 461 
C 1446 461 973 506 544 909 
C 486 966 480 973 454 973 
C 390 973 378 915 371 902 
C 371 902 294 493 294 461 
C 294 378 845 -141 1683 -141 
C 2784 -141 3219 448 3219 1299 
z
" transform="scale(0.015625)"/>
      <path id="LMSans10-Bold-25" d="M 2701 3507 
C 2701 4045 2554 4800 1555 4800 
C 800 4800 390 4378 390 3514 
C 390 2918 582 2221 1555 2221 
C 2432 2221 2701 2810 2701 3507 
z
M 5312 4531 
C 5312 4672 5197 4800 5043 4800 
C 4909 4800 4838 4704 4806 4666 
L 1370 109 
C 1325 45 1286 0 1286 -90 
C 1286 -237 1408 -358 1555 -358 
C 1690 -358 1760 -269 1792 -224 
L 5235 4333 
C 5312 4435 5312 4512 5312 4531 
z
M 6189 928 
C 6189 1466 6042 2221 5043 2221 
C 4288 2221 3878 1798 3878 934 
C 3878 339 4070 -358 5043 -358 
C 5920 -358 6189 230 6189 928 
z
M 1971 3514 
C 1971 3302 1971 2682 1549 2682 
C 1158 2682 1158 3117 1158 3507 
C 1158 3904 1158 4339 1549 4339 
C 1971 4339 1971 3718 1971 3514 
z
M 5459 934 
C 5459 723 5459 102 5037 102 
C 4646 102 4646 538 4646 934 
C 4646 1325 4646 1760 5037 1760 
C 5459 1760 5459 1139 5459 934 
z
" transform="scale(0.015625)"/>
     </defs>
     <use xlink:href="#LMSans10-Bold-38"/>
     <use xlink:href="#LMSans10-Bold-33" x="54.999985"/>
     <use xlink:href="#LMSans10-Bold-25" x="109.999969"/>
    </g>
   </g>
   <g id="text_2">
    <!-- 17% -->
    <g style="fill: #ffffff" transform="translate(84.138477 74.263055)scale(0.08 -0.08)">
     <defs>
      <path id="LMSans10-Bold-31" d="M 3027 230 
C 3027 461 2790 461 2720 461 
L 2272 461 
L 2272 4275 
C 2272 4397 2272 4582 1990 4582 
C 1862 4582 1837 4570 1760 4493 
C 1645 4390 1402 4154 768 4141 
C 653 4141 486 4096 486 3910 
C 486 3680 710 3680 794 3680 
C 986 3680 1210 3712 1395 3763 
L 1395 461 
L 896 461 
C 813 461 589 461 589 230 
C 589 0 813 0 896 0 
L 2720 0 
C 2790 0 3027 0 3027 230 
z
" transform="scale(0.015625)"/>
      <path id="LMSans10-Bold-37" d="M 3219 4122 
C 3219 4262 3219 4435 2950 4442 
L 1133 4448 
L 730 4448 
C 422 4448 294 4448 294 4141 
L 294 4058 
C 294 3955 294 3834 429 3776 
C 474 3750 685 3750 819 3750 
L 1267 3757 
L 2349 3757 
C 915 2176 915 563 915 237 
C 915 32 960 -70 1222 -70 
L 1517 -70 
C 1619 -70 1824 -70 1824 179 
C 1843 1766 2400 2925 3168 3891 
C 3219 3955 3219 4006 3219 4122 
z
" transform="scale(0.015625)"/>
     </defs>
     <use xlink:href="#LMSans10-Bold-31"/>
     <use xlink:href="#LMSans10-Bold-37" x="54.999985"/>
     <use xlink:href="#LMSans10-Bold-25" x="109.999969"/>
    </g>
   </g>
   <g id="legend_1">
    <g id="patch_6">
     <path d="M 12.8 20.76 
L 126.305 20.76 
Q 127.905 20.76 127.905 19.16 
L 127.905 8.8 
Q 127.905 7.2 126.305 7.2 
L 12.8 7.2 
Q 11.2 7.2 11.2 8.8 
L 11.2 19.16 
Q 11.2 20.76 12.8 20.76 
z
" style="fill: #ffffff; opacity: 0.8; stroke: #cccccc; stroke-linejoin: miter"/>
    </g>
    <g id="patch_7">
     <path d="M 14.4 16 
L 30.4 16 
L 30.4 10.4 
L 14.4 10.4 
z
" style="fill: #6b6ecf"/>
    </g>
    <g id="text_3">
     <!-- spliced -->
     <g transform="translate(36.8 16)scale(0.08 -0.08)">
      <defs>
       <path id="LMSans17-Regular-73" d="M 2163 794 
C 2163 1107 1984 1318 1862 1414 
C 1651 1581 1574 1600 1050 1709 
C 960 1722 646 1792 646 2080 
C 646 2445 1050 2445 1139 2445 
C 1555 2445 1811 2317 1984 2221 
L 2061 2637 
C 1683 2816 1389 2829 1197 2829 
C 742 2829 198 2669 198 2022 
C 198 1376 902 1235 1094 1197 
C 1389 1139 1715 1075 1715 755 
C 1715 352 1254 352 1171 352 
C 915 352 563 422 243 653 
L 166 224 
C 531 13 883 -51 1178 -51 
C 1965 -51 2163 429 2163 794 
z
" transform="scale(0.015625)"/>
       <path id="LMSans17-Regular-70" d="M 2880 1382 
C 2880 2138 2496 2803 1946 2803 
C 1626 2803 1242 2688 954 2458 
L 954 2752 
L 480 2752 
L 480 -1248 
L 966 -1248 
L 966 288 
C 1178 83 1466 -51 1773 -51 
C 2368 -51 2880 563 2880 1382 
z
M 2394 1382 
C 2394 749 1958 339 1530 339 
C 1402 339 1267 371 1139 480 
C 966 634 966 730 966 819 
L 966 2080 
C 1018 2157 1235 2400 1587 2400 
C 2035 2400 2394 1939 2394 1382 
z
" transform="scale(0.015625)"/>
       <path id="LMSans17-Regular-6c" d="M 947 0 
L 947 4442 
L 474 4442 
L 474 0 
L 947 0 
z
" transform="scale(0.015625)"/>
       <path id="LMSans17-Regular-69" d="M 947 0 
L 947 2752 
L 474 2752 
L 474 0 
L 947 0 
z
M 986 3610 
L 986 4147 
L 448 4147 
L 448 3610 
L 986 3610 
z
" transform="scale(0.015625)"/>
       <path id="LMSans17-Regular-63" d="M 2502 256 
L 2464 678 
C 2189 467 1869 352 1523 352 
C 1024 352 698 787 698 1382 
C 698 1843 909 2426 1549 2426 
C 1901 2426 2099 2355 2394 2157 
L 2464 2554 
C 2464 2598 2170 2726 2093 2752 
C 1882 2829 1613 2829 1542 2829 
C 710 2829 211 2106 211 1376 
C 211 608 768 -51 1517 -51 
C 1946 -51 2253 90 2502 256 
z
" transform="scale(0.015625)"/>
       <path id="LMSans17-Regular-65" d="M 2502 1402 
C 2502 1613 2490 2022 2285 2362 
C 2061 2726 1696 2829 1421 2829 
C 755 2829 192 2202 192 1389 
C 192 595 774 -51 1510 -51 
C 1798 -51 2150 32 2470 262 
C 2470 288 2451 435 2451 435 
C 2451 435 2432 646 2432 672 
C 2125 422 1773 339 1517 339 
C 1107 339 666 685 646 1402 
L 2502 1402 
z
M 2080 1754 
L 698 1754 
C 781 2106 1062 2438 1421 2438 
C 1517 2438 1965 2426 2080 1754 
z
" transform="scale(0.015625)"/>
       <path id="LMSans17-Regular-64" d="M 2611 0 
L 2611 4442 
L 2138 4442 
L 2138 2483 
C 1939 2650 1613 2803 1254 2803 
C 672 2803 211 2170 211 1376 
C 211 582 666 -51 1235 -51 
C 1677 -51 1971 186 2125 320 
L 2125 0 
L 2611 0 
z
M 2125 858 
C 2125 768 2125 672 1926 499 
C 1798 390 1645 339 1498 339 
C 1152 339 698 595 698 1370 
C 698 2176 1210 2413 1562 2413 
C 1798 2413 1990 2298 2125 2106 
L 2125 858 
z
" transform="scale(0.015625)"/>
      </defs>
      <use xlink:href="#LMSans17-Regular-73"/>
      <use xlink:href="#LMSans17-Regular-70" x="35.999985"/>
      <use xlink:href="#LMSans17-Regular-6c" x="84.399979"/>
      <use xlink:href="#LMSans17-Regular-69" x="106.699966"/>
      <use xlink:href="#LMSans17-Regular-63" x="128.999954"/>
      <use xlink:href="#LMSans17-Regular-65" x="170.799942"/>
      <use xlink:href="#LMSans17-Regular-64" x="212.59993"/>
     </g>
    </g>
    <g id="patch_8">
     <path d="M 73.68 16 
L 89.68 16 
L 89.68 10.4 
L 73.68 10.4 
z
" style="fill: #ad494a"/>
    </g>
    <g id="text_4">
     <!-- unspliced -->
     <g transform="translate(96.08 16)scale(0.08 -0.08)">
      <defs>
       <path id="LMSans17-Regular-75" d="M 2618 0 
L 2618 2752 
L 2131 2752 
L 2131 986 
C 2131 512 1786 320 1421 320 
C 998 320 960 461 960 723 
L 960 2752 
L 474 2752 
L 474 691 
C 474 192 646 -51 1088 -51 
C 1306 -51 1798 0 2144 320 
L 2144 0 
L 2618 0 
z
" transform="scale(0.015625)"/>
       <path id="LMSans17-Regular-6e" d="M 2618 0 
L 2618 1869 
C 2618 2272 2522 2803 1798 2803 
C 1389 2803 1120 2592 941 2374 
L 941 2771 
L 474 2771 
L 474 0 
L 960 0 
L 960 1549 
C 960 1952 1114 2413 1549 2413 
C 2112 2413 2131 2035 2131 1818 
L 2131 0 
L 2618 0 
z
" transform="scale(0.015625)"/>
      </defs>
      <use xlink:href="#LMSans17-Regular-75"/>
      <use xlink:href="#LMSans17-Regular-6e" x="48.399994"/>
      <use xlink:href="#LMSans17-Regular-73" x="96.799988"/>
      <use xlink:href="#LMSans17-Regular-70" x="132.799973"/>
      <use xlink:href="#LMSans17-Regular-6c" x="181.199966"/>
      <use xlink:href="#LMSans17-Regular-69" x="203.499954"/>
      <use xlink:href="#LMSans17-Regular-63" x="225.799942"/>
      <use xlink:href="#LMSans17-Regular-65" x="267.59993"/>
      <use xlink:href="#LMSans17-Regular-64" x="309.399918"/>
     </g>
    </g>
   </g>
  </g>
  <g id="axes_2">
   <g id="patch_9">
    <path d="M 240.185455 135.64 
L 493.821818 135.64 
L 493.821818 24.76 
L 240.185455 24.76 
z
" style="fill: #ffffff"/>
   </g>
   <g id="patch_10">
    <path d="M 240.185455 24.76 
L 462.333103 24.76 
L 462.333103 37.391899 
L 240.185455 37.391899 
z
" clip-path="url(#p7d72441385)" style="fill: #6b6ecf"/>
   </g>
   <g id="patch_11">
    <path d="M 240.185455 38.795443 
L 462.33528 38.795443 
L 462.33528 51.427342 
L 240.185455 51.427342 
z
" clip-path="url(#p7d72441385)" style="fill: #6b6ecf"/>
   </g>
   <g id="patch_12">
    <path d="M 240.185455 52.830886 
L 455.402894 52.830886 
L 455.402894 65.462785 
L 240.185455 65.462785 
z
" clip-path="url(#p7d72441385)" style="fill: #6b6ecf"/>
   </g>
   <g id="patch_13">
    <path d="M 240.185455 66.866329 
L 441.741261 66.866329 
L 441.741261 79.498228 
L 240.185455 79.498228 
z
" clip-path="url(#p7d72441385)" style="fill: #6b6ecf"/>
   </g>
   <g id="patch_14">
    <path d="M 240.185455 80.901772 
L 441.618851 80.901772 
L 441.618851 93.533671 
L 240.185455 93.533671 
z
" clip-path="url(#p7d72441385)" style="fill: #6b6ecf"/>
   </g>
   <g id="patch_15">
    <path d="M 240.185455 94.937215 
L 444.061797 94.937215 
L 444.061797 107.569114 
L 240.185455 107.569114 
z
" clip-path="url(#p7d72441385)" style="fill: #6b6ecf"/>
   </g>
   <g id="patch_16">
    <path d="M 240.185455 108.972658 
L 445.014452 108.972658 
L 445.014452 121.604557 
L 240.185455 121.604557 
z
" clip-path="url(#p7d72441385)" style="fill: #6b6ecf"/>
   </g>
   <g id="patch_17">
    <path d="M 240.185455 123.008101 
L 448.56241 123.008101 
L 448.56241 135.64 
L 240.185455 135.64 
z
" clip-path="url(#p7d72441385)" style="fill: #6b6ecf"/>
   </g>
   <g id="patch_18">
    <path d="M 462.333118 24.76 
L 493.821818 24.76 
L 493.821818 37.391899 
L 462.333118 37.391899 
z
" clip-path="url(#p7d72441385)" style="fill: #ad494a"/>
   </g>
   <g id="patch_19">
    <path d="M 462.335265 38.795443 
L 493.821637 38.795443 
L 493.821637 51.427342 
L 462.335265 51.427342 
z
" clip-path="url(#p7d72441385)" style="fill: #ad494a"/>
   </g>
   <g id="patch_20">
    <path d="M 455.402894 52.830886 
L 493.821637 52.830886 
L 493.821637 65.462785 
L 455.402894 65.462785 
z
" clip-path="url(#p7d72441385)" style="fill: #ad494a"/>
   </g>
   <g id="patch_21">
    <path d="M 441.741261 66.866329 
L 493.821622 66.866329 
L 493.821622 79.498228 
L 441.741261 79.498228 
z
" clip-path="url(#p7d72441385)" style="fill: #ad494a"/>
   </g>
   <g id="patch_22">
    <path d="M 441.618851 80.901772 
L 493.821607 80.901772 
L 493.821607 93.533671 
L 441.618851 93.533671 
z
" clip-path="url(#p7d72441385)" style="fill: #ad494a"/>
   </g>
   <g id="patch_23">
    <path d="M 444.061813 94.937215 
L 493.821727 94.937215 
L 493.821727 107.569114 
L 444.061813 107.569114 
z
" clip-path="url(#p7d72441385)" style="fill: #ad494a"/>
   </g>
   <g id="patch_24">
    <path d="M 445.014452 108.972658 
L 493.821637 108.972658 
L 493.821637 121.604557 
L 445.014452 121.604557 
z
" clip-path="url(#p7d72441385)" style="fill: #ad494a"/>
   </g>
   <g id="patch_25">
    <path d="M 448.562395 123.008101 
L 493.821622 123.008101 
L 493.821622 135.64 
L 448.562395 135.64 
z
" clip-path="url(#p7d72441385)" style="fill: #ad494a"/>
   </g>
   <g id="matplotlib.axis_3">
    <g id="xtick_1">
     <g id="line2d_1">
      <defs>
       <path id="m16d727a5db" d="M 0 0 
L 0 3.5 
" style="stroke: #000000; stroke-width: 0.8"/>
      </defs>
      <g>
       <use xlink:href="#m16d727a5db" x="240.185455" y="135.64" style="stroke: #000000; stroke-width: 0.8"/>
      </g>
     </g>
     <g id="text_5">
      <!-- 0.0 -->
      <g transform="translate(235.381705 148.1925)scale(0.08 -0.08)">
       <defs>
        <path id="LMSans17-Regular-30" d="M 2758 2093 
C 2758 2458 2752 3136 2490 3661 
C 2227 4166 1805 4301 1504 4301 
C 1069 4301 698 4045 506 3635 
C 301 3206 243 2765 243 2093 
C 243 1632 262 1069 493 576 
C 755 32 1197 -102 1498 -102 
C 1894 -102 2278 109 2496 550 
C 2720 1011 2758 1517 2758 2093 
z
M 2272 2163 
C 2272 1568 2272 288 1498 288 
C 1011 288 864 845 819 1030 
C 742 1350 730 1658 730 2163 
C 730 2560 730 3008 851 3360 
C 998 3770 1254 3910 1498 3910 
C 1971 3910 2125 3437 2176 3270 
C 2272 2931 2272 2534 2272 2163 
z
" transform="scale(0.015625)"/>
        <path id="LMSans17-Regular-2e" d="M 1088 0 
L 1088 512 
L 576 512 
L 576 0 
L 1088 0 
z
" transform="scale(0.015625)"/>
       </defs>
       <use xlink:href="#LMSans17-Regular-30"/>
       <use xlink:href="#LMSans17-Regular-2e" x="46.999985"/>
       <use xlink:href="#LMSans17-Regular-30" x="73.099976"/>
      </g>
     </g>
    </g>
    <g id="xtick_2">
     <g id="line2d_2">
      <g>
       <use xlink:href="#m16d727a5db" x="290.912691" y="135.64" style="stroke: #000000; stroke-width: 0.8"/>
      </g>
     </g>
     <g id="text_6">
      <!-- 0.2 -->
      <g transform="translate(286.108941 148.1925)scale(0.08 -0.08)">
       <defs>
        <path id="LMSans17-Regular-32" d="M 2701 0 
L 2701 435 
L 1613 435 
C 1536 435 1459 429 1382 429 
L 742 429 
L 742 435 
L 1651 1357 
C 1830 1542 2099 1766 2285 1990 
C 2464 2208 2701 2515 2701 2963 
C 2701 3667 2227 4301 1421 4301 
C 787 4301 422 3904 250 3283 
L 499 2938 
C 640 3520 838 3891 1338 3891 
C 1888 3891 2195 3443 2195 2950 
C 2195 2362 1747 1907 1408 1568 
L 301 410 
L 301 0 
L 2701 0 
z
" transform="scale(0.015625)"/>
       </defs>
       <use xlink:href="#LMSans17-Regular-30"/>
       <use xlink:href="#LMSans17-Regular-2e" x="46.999985"/>
       <use xlink:href="#LMSans17-Regular-32" x="73.099976"/>
      </g>
     </g>
    </g>
    <g id="xtick_3">
     <g id="line2d_3">
      <g>
       <use xlink:href="#m16d727a5db" x="341.639927" y="135.64" style="stroke: #000000; stroke-width: 0.8"/>
      </g>
     </g>
     <g id="text_7">
      <!-- 0.4 -->
      <g transform="translate(336.836177 148.1925)scale(0.08 -0.08)">
       <defs>
        <path id="LMSans17-Regular-34" d="M 2835 1094 
L 2835 1485 
L 2253 1485 
L 2253 4198 
L 1690 4198 
L 166 1485 
L 166 1094 
L 1747 1094 
L 1747 0 
L 2253 0 
L 2253 1094 
L 2835 1094 
z
M 1766 1485 
L 659 1485 
C 1030 2138 1760 3456 1766 3904 
L 1766 1485 
z
" transform="scale(0.015625)"/>
       </defs>
       <use xlink:href="#LMSans17-Regular-30"/>
       <use xlink:href="#LMSans17-Regular-2e" x="46.999985"/>
       <use xlink:href="#LMSans17-Regular-34" x="73.099976"/>
      </g>
     </g>
    </g>
    <g id="xtick_4">
     <g id="line2d_4">
      <g>
       <use xlink:href="#m16d727a5db" x="392.367164" y="135.64" style="stroke: #000000; stroke-width: 0.8"/>
      </g>
     </g>
     <g id="text_8">
      <!-- 0.6 -->
      <g transform="translate(387.563414 148.1925)scale(0.08 -0.08)">
       <defs>
        <path id="LMSans17-Regular-36" d="M 2752 1421 
C 2752 2214 2362 2918 1779 2918 
C 1357 2918 992 2694 768 2413 
C 832 3315 1254 3910 1862 3910 
C 2029 3910 2246 3885 2496 3776 
L 2496 4173 
C 2227 4282 2035 4301 1856 4301 
C 1024 4301 250 3430 250 2054 
C 250 294 986 -102 1510 -102 
C 1798 -102 2086 -13 2362 307 
C 2643 646 2752 928 2752 1421 
z
M 2246 1421 
C 2246 1171 2246 922 2099 666 
C 1978 467 1818 294 1510 294 
C 902 294 800 1146 774 1402 
C 774 1453 774 1485 781 1581 
C 781 2080 1069 2528 1536 2528 
C 1837 2528 1990 2368 2106 2170 
C 2240 1920 2246 1683 2246 1421 
z
" transform="scale(0.015625)"/>
       </defs>
       <use xlink:href="#LMSans17-Regular-30"/>
       <use xlink:href="#LMSans17-Regular-2e" x="46.999985"/>
       <use xlink:href="#LMSans17-Regular-36" x="73.099976"/>
      </g>
     </g>
    </g>
    <g id="xtick_5">
     <g id="line2d_5">
      <g>
       <use xlink:href="#m16d727a5db" x="443.0944" y="135.64" style="stroke: #000000; stroke-width: 0.8"/>
      </g>
     </g>
     <g id="text_9">
      <!-- 0.8 -->
      <g transform="translate(438.29065 148.1925)scale(0.08 -0.08)">
       <defs>
        <path id="LMSans17-Regular-38" d="M 2752 1178 
C 2752 1600 2502 2048 1933 2272 
C 2419 2432 2669 2816 2669 3194 
C 2669 3789 2157 4301 1504 4301 
C 826 4301 333 3770 333 3194 
C 333 2822 576 2438 1069 2272 
C 442 2029 250 1542 250 1178 
C 250 474 819 -102 1498 -102 
C 2202 -102 2752 486 2752 1178 
z
M 2214 3187 
C 2214 2726 1907 2464 1504 2464 
C 1075 2464 787 2752 787 3187 
C 787 3629 1075 3910 1504 3910 
C 1901 3910 2214 3654 2214 3187 
z
M 2253 1184 
C 2253 518 1830 294 1504 294 
C 1139 294 749 544 749 1184 
C 749 1843 1184 2074 1498 2074 
C 1843 2074 2253 1830 2253 1184 
z
" transform="scale(0.015625)"/>
       </defs>
       <use xlink:href="#LMSans17-Regular-30"/>
       <use xlink:href="#LMSans17-Regular-2e" x="46.999985"/>
       <use xlink:href="#LMSans17-Regular-38" x="73.099976"/>
      </g>
     </g>
    </g>
    <g id="xtick_6">
     <g id="line2d_6">
      <g>
       <use xlink:href="#m16d727a5db" x="493.821637" y="135.64" style="stroke: #000000; stroke-width: 0.8"/>
      </g>
     </g>
     <g id="text_10">
      <!-- 1.0 -->
      <g transform="translate(489.017887 148.1925)scale(0.08 -0.08)">
       <defs>
        <path id="LMSans17-Regular-31" d="M 2573 0 
L 2573 371 
L 1818 371 
L 1818 4301 
L 1696 4301 
C 1350 3942 947 3891 538 3878 
L 538 3507 
C 723 3514 1024 3526 1325 3661 
L 1325 371 
L 570 371 
L 570 0 
L 2573 0 
z
" transform="scale(0.015625)"/>
       </defs>
       <use xlink:href="#LMSans17-Regular-31"/>
       <use xlink:href="#LMSans17-Regular-2e" x="46.999985"/>
       <use xlink:href="#LMSans17-Regular-30" x="73.099976"/>
      </g>
     </g>
    </g>
    <g id="text_11">
     <!-- proportions -->
     <g transform="translate(342.240886 160.4155)scale(0.096 -0.096)">
      <defs>
       <path id="LMSans10-Bold-70" d="M 3347 1478 
C 3347 1792 3347 3002 2189 3002 
C 1811 3002 1472 2848 1242 2630 
C 1242 2867 1152 2931 934 2931 
L 698 2931 
C 467 2931 390 2861 390 2624 
L 390 -934 
C 390 -1165 461 -1242 698 -1242 
L 954 -1242 
C 1197 -1242 1261 -1158 1261 -934 
L 1261 250 
C 1549 -70 1901 -70 1990 -70 
C 3347 -70 3347 1158 3347 1478 
z
M 2477 1466 
C 2477 1210 2477 390 1754 390 
C 1606 390 1491 442 1414 499 
C 1261 608 1261 640 1261 755 
L 1261 2291 
C 1331 2355 1542 2502 1818 2502 
C 2470 2502 2477 1747 2477 1466 
z
" transform="scale(0.015625)"/>
       <path id="LMSans10-Bold-72" d="M 2278 2528 
L 2278 2829 
C 2278 2957 2278 3002 2163 3002 
C 1984 3002 1517 2938 1216 2246 
L 1210 2246 
L 1210 2662 
C 1210 2867 1165 2970 902 2970 
L 698 2970 
C 467 2970 390 2899 390 2662 
L 390 307 
C 390 77 461 0 698 0 
L 934 0 
C 1178 0 1242 83 1242 307 
L 1242 1472 
C 1242 2080 1747 2330 2150 2355 
C 2266 2362 2278 2362 2278 2528 
z
" transform="scale(0.015625)"/>
       <path id="LMSans10-Bold-6f" d="M 3315 1440 
C 3315 2490 2803 3040 1760 3040 
C 691 3040 198 2470 198 1440 
C 198 397 749 -70 1754 -70 
C 2758 -70 3315 390 3315 1440 
z
M 2445 1517 
C 2445 1011 2445 429 1760 429 
C 1069 429 1069 1005 1069 1517 
C 1069 2010 1069 2579 1754 2579 
C 2445 2579 2445 2016 2445 1517 
z
" transform="scale(0.015625)"/>
       <path id="LMSans10-Bold-74" d="M 2387 301 
C 2387 320 2374 365 2336 499 
C 2304 627 2291 666 2234 666 
C 2202 666 2195 659 2157 621 
C 2086 570 1914 429 1645 429 
C 1491 429 1395 538 1395 960 
L 1395 2470 
L 1965 2470 
C 2042 2470 2272 2470 2272 2701 
C 2272 2931 2042 2931 1965 2931 
L 1395 2931 
L 1395 3462 
C 1395 3667 1350 3770 1088 3770 
L 890 3770 
C 659 3770 582 3699 582 3462 
L 582 2931 
L 435 2931 
C 365 2931 128 2931 128 2701 
C 128 2470 358 2470 435 2470 
L 563 2470 
L 563 851 
C 563 205 794 -70 1235 -70 
C 1293 -70 1574 -70 1907 32 
C 2016 64 2387 179 2387 301 
z
" transform="scale(0.015625)"/>
       <path id="LMSans10-Bold-69" d="M 1242 307 
L 1242 2624 
C 1242 2829 1197 2931 934 2931 
L 698 2931 
C 467 2931 390 2861 390 2624 
L 390 307 
C 390 77 461 0 698 0 
L 934 0 
C 1178 0 1242 83 1242 307 
z
M 1286 3878 
L 1286 4000 
C 1286 4205 1242 4307 979 4307 
L 653 4307 
C 410 4307 346 4224 346 4000 
L 346 3878 
C 346 3693 378 3571 653 3571 
L 979 3571 
C 1248 3571 1286 3686 1286 3878 
z
" transform="scale(0.015625)"/>
       <path id="LMSans10-Bold-6e" d="M 3200 307 
L 3200 2080 
C 3200 2739 2918 3002 2266 3002 
C 1594 3002 1306 2515 1222 2342 
L 1216 2342 
L 1216 2662 
C 1216 2867 1171 2970 909 2970 
L 691 2970 
C 461 2970 384 2899 384 2662 
L 384 307 
C 384 77 454 0 691 0 
L 947 0 
C 1190 0 1254 83 1254 307 
L 1254 1722 
C 1254 2278 1626 2541 1958 2541 
C 2266 2541 2330 2394 2330 2067 
L 2330 307 
C 2330 102 2374 0 2637 0 
L 2893 0 
C 3136 0 3200 83 3200 307 
z
" transform="scale(0.015625)"/>
       <path id="LMSans10-Bold-73" d="M 2534 902 
C 2534 1261 2342 1485 2227 1587 
C 1971 1818 1747 1856 1478 1907 
C 1126 1971 870 2022 870 2272 
C 870 2534 1082 2586 1331 2586 
C 1760 2586 1990 2426 2157 2285 
C 2221 2221 2234 2221 2259 2221 
C 2323 2221 2336 2278 2342 2304 
C 2355 2355 2419 2714 2419 2746 
C 2419 2848 2080 2938 2010 2963 
C 1754 3034 1549 3040 1382 3040 
C 1094 3040 237 3040 237 2125 
C 237 1811 378 1619 550 1466 
C 774 1261 1024 1216 1389 1146 
C 1574 1114 1901 1056 1901 774 
C 1901 474 1651 429 1402 429 
C 1120 429 762 512 461 870 
C 429 902 410 922 371 922 
C 307 922 294 864 288 826 
C 275 736 198 371 198 307 
C 198 192 678 38 678 38 
C 1030 -70 1293 -70 1402 -70 
C 1728 -70 2534 -45 2534 902 
z
" transform="scale(0.015625)"/>
      </defs>
      <use xlink:href="#LMSans10-Bold-70"/>
      <use xlink:href="#LMSans10-Bold-72" x="56.099991"/>
      <use xlink:href="#LMSans10-Bold-6f" x="93.299988"/>
      <use xlink:href="#LMSans10-Bold-70" x="148.299973"/>
      <use xlink:href="#LMSans10-Bold-6f" x="204.399963"/>
      <use xlink:href="#LMSans10-Bold-72" x="259.399948"/>
      <use xlink:href="#LMSans10-Bold-74" x="296.599945"/>
      <use xlink:href="#LMSans10-Bold-69" x="336.999939"/>
      <use xlink:href="#LMSans10-Bold-6f" x="362.59993"/>
      <use xlink:href="#LMSans10-Bold-6e" x="417.599915"/>
      <use xlink:href="#LMSans10-Bold-73" x="473.699905"/>
     </g>
    </g>
   </g>
   <g id="matplotlib.axis_4">
    <g id="ytick_1">
     <g id="line2d_7">
      <defs>
       <path id="m778ba7e591" d="M 0 0 
L -3.5 0 
" style="stroke: #000000; stroke-width: 0.8"/>
      </defs>
      <g>
       <use xlink:href="#m778ba7e591" x="240.185455" y="31.075949" style="stroke: #000000; stroke-width: 0.8"/>
      </g>
     </g>
     <g id="text_12">
      <!-- Ductal -->
      <g transform="translate(212.434205 33.852199)scale(0.08 -0.08)">
       <defs>
        <path id="LMSans17-Regular-44" d="M 4000 2182 
C 4000 3418 3194 4442 2144 4442 
L 570 4442 
L 570 0 
L 2144 0 
C 3194 0 4000 986 4000 2182 
z
M 3475 2182 
C 3475 1114 2867 358 2003 358 
L 1094 358 
L 1094 4083 
L 2003 4083 
C 2861 4083 3475 3296 3475 2182 
z
" transform="scale(0.015625)"/>
        <path id="LMSans17-Regular-74" d="M 2003 186 
L 1901 563 
C 1747 429 1562 352 1363 352 
C 1082 352 1069 710 1069 870 
L 1069 2381 
L 1901 2381 
L 1901 2752 
L 1069 2752 
L 1069 3539 
L 614 3539 
L 614 2752 
L 109 2752 
L 109 2381 
L 602 2381 
L 602 762 
C 602 397 685 -51 1107 -51 
C 1427 -51 1722 38 2003 186 
z
" transform="scale(0.015625)"/>
        <path id="LMSans17-Regular-61" d="M 2470 0 
L 2470 1811 
C 2470 2413 2042 2829 1466 2829 
C 1184 2829 877 2778 525 2573 
L 563 2150 
C 723 2266 998 2451 1459 2451 
C 1786 2451 1984 2202 1984 1805 
L 1984 1562 
C 960 1530 320 1235 320 730 
C 320 467 480 -51 1011 -51 
C 1107 -51 1626 -38 1997 237 
L 1997 0 
L 2470 0 
z
M 1984 845 
C 1984 730 1984 576 1792 461 
C 1626 352 1414 339 1325 339 
C 1005 339 787 518 787 742 
C 787 1190 1786 1235 1984 1242 
L 1984 845 
z
" transform="scale(0.015625)"/>
       </defs>
       <use xlink:href="#LMSans17-Regular-44"/>
       <use xlink:href="#LMSans17-Regular-75" x="67.799988"/>
       <use xlink:href="#LMSans17-Regular-63" x="116.199982"/>
       <use xlink:href="#LMSans17-Regular-74" x="157.999969"/>
       <use xlink:href="#LMSans17-Regular-61" x="191.999954"/>
       <use xlink:href="#LMSans17-Regular-6c" x="237.099945"/>
      </g>
     </g>
    </g>
    <g id="ytick_2">
     <g id="line2d_8">
      <g>
       <use xlink:href="#m778ba7e591" x="240.185455" y="45.111392" style="stroke: #000000; stroke-width: 0.8"/>
      </g>
     </g>
     <g id="text_13">
      <!-- Ngn3 low EP -->
      <g transform="translate(191.522955 47.887642)scale(0.08 -0.08)">
       <defs>
        <path id="LMSans17-Regular-4e" d="M 3674 0 
L 3674 4442 
L 3174 4442 
L 3174 493 
L 3168 486 
L 2835 1229 
L 1466 4205 
L 1350 4442 
L 563 4442 
L 563 0 
L 1062 0 
L 1062 3949 
L 1069 3955 
L 1402 3213 
L 2771 237 
L 2886 0 
L 3674 0 
z
" transform="scale(0.015625)"/>
        <path id="LMSans17-Regular-67" d="M 2918 2406 
L 2848 2803 
C 2483 2797 2170 2726 1914 2605 
C 1702 2771 1485 2803 1338 2803 
C 781 2803 358 2342 358 1805 
C 358 1459 550 1197 563 1184 
C 448 1024 384 851 384 659 
C 384 435 474 275 544 186 
C 211 -19 166 -333 166 -454 
C 166 -922 749 -1306 1498 -1306 
C 2253 -1306 2835 -922 2835 -448 
C 2835 435 1856 442 1587 442 
L 1069 442 
C 973 442 717 442 717 768 
C 717 896 781 986 781 986 
C 877 915 1075 806 1338 806 
C 1869 806 2310 1254 2310 1805 
C 2310 2112 2170 2336 2112 2413 
L 2131 2413 
C 2150 2413 2419 2432 2515 2432 
C 2720 2432 2739 2426 2918 2406 
z
M 1856 1805 
C 1856 1248 1504 1158 1338 1158 
C 1120 1158 813 1293 813 1805 
C 813 2362 1165 2451 1331 2451 
C 1549 2451 1856 2317 1856 1805 
z
M 2381 -461 
C 2381 -736 1984 -954 1504 -954 
C 1018 -954 621 -742 621 -454 
C 621 -422 621 -26 1062 -26 
L 1581 -26 
C 1734 -26 2381 -26 2381 -461 
z
" transform="scale(0.015625)"/>
        <path id="LMSans17-Regular-33" d="M 2752 1178 
C 2752 1683 2400 2106 1920 2266 
C 2304 2477 2586 2874 2586 3334 
C 2586 3872 2093 4301 1491 4301 
C 941 4301 512 3962 333 3597 
C 378 3533 493 3347 550 3251 
C 691 3629 1056 3910 1485 3910 
C 1843 3910 2080 3674 2080 3334 
C 2080 2982 1856 2598 1478 2509 
C 1453 2509 1056 2470 1005 2464 
L 1005 2074 
L 1440 2074 
C 2042 2074 2214 1549 2214 1184 
C 2214 685 1933 294 1472 294 
C 1114 294 608 474 320 947 
C 275 723 275 710 250 557 
C 550 115 1037 -102 1485 -102 
C 2214 -102 2752 506 2752 1178 
z
" transform="scale(0.015625)"/>
        <path id="LMSans17-Regular-20" transform="scale(0.015625)"/>
        <path id="LMSans17-Regular-6f" d="M 2829 1370 
C 2829 2189 2221 2829 1504 2829 
C 768 2829 173 2170 173 1370 
C 173 557 787 -51 1498 -51 
C 2227 -51 2829 576 2829 1370 
z
M 2342 1421 
C 2342 698 1926 346 1498 346 
C 1050 346 659 723 659 1421 
C 659 2163 1114 2432 1498 2432 
C 1914 2432 2342 2138 2342 1421 
z
" transform="scale(0.015625)"/>
        <path id="LMSans17-Regular-77" d="M 4013 2752 
L 3526 2752 
L 3187 1600 
C 3117 1357 2918 685 2893 371 
L 2886 371 
C 2874 563 2765 1024 2586 1632 
L 2259 2752 
L 1818 2752 
L 1498 1658 
C 1338 1101 1216 627 1203 371 
L 1197 371 
C 1171 749 909 1632 870 1773 
L 582 2752 
L 83 2752 
L 915 0 
L 1402 0 
C 1734 1101 1990 1952 2010 2381 
C 2022 2170 2131 1715 2195 1491 
L 2618 0 
L 3181 0 
L 4013 2752 
z
" transform="scale(0.015625)"/>
        <path id="LMSans17-Regular-45" d="M 3334 0 
L 3334 442 
L 1958 435 
L 1101 429 
L 1101 2106 
L 3085 2106 
L 3085 2496 
L 1101 2496 
L 1101 4019 
L 1926 4019 
C 2003 4019 2080 4013 2157 4013 
L 3251 4013 
L 3251 4429 
L 563 4429 
L 563 0 
L 3334 0 
z
" transform="scale(0.015625)"/>
        <path id="LMSans17-Regular-50" d="M 3501 3149 
C 3501 3840 2899 4442 2067 4442 
L 570 4442 
L 570 0 
L 1107 0 
L 1107 1850 
L 2106 1850 
C 2874 1850 3501 2445 3501 3149 
z
M 2995 3149 
C 2995 2714 2694 2221 1926 2221 
L 1094 2221 
L 1094 4083 
L 1926 4083 
C 2669 4083 2995 3616 2995 3149 
z
" transform="scale(0.015625)"/>
       </defs>
       <use xlink:href="#LMSans17-Regular-4e"/>
       <use xlink:href="#LMSans17-Regular-67" x="66.299988"/>
       <use xlink:href="#LMSans17-Regular-6e" x="113.299973"/>
       <use xlink:href="#LMSans17-Regular-33" x="161.699966"/>
       <use xlink:href="#LMSans17-Regular-20" x="208.699951"/>
       <use xlink:href="#LMSans17-Regular-6c" x="239.999939"/>
       <use xlink:href="#LMSans17-Regular-6f" x="262.299927"/>
       <use xlink:href="#LMSans17-Regular-77" x="309.299911"/>
       <use xlink:href="#LMSans17-Regular-20" x="373.399902"/>
       <use xlink:href="#LMSans17-Regular-45" x="404.69989"/>
       <use xlink:href="#LMSans17-Regular-50" x="460.799881"/>
      </g>
     </g>
    </g>
    <g id="ytick_3">
     <g id="line2d_9">
      <g>
       <use xlink:href="#m778ba7e591" x="240.185455" y="59.146835" style="stroke: #000000; stroke-width: 0.8"/>
      </g>
     </g>
     <g id="text_14">
      <!-- Ngn3 high EP -->
      <g transform="translate(188.905455 61.923085)scale(0.08 -0.08)">
       <defs>
        <path id="LMSans17-Regular-68" d="M 2618 0 
L 2618 1869 
C 2618 2272 2522 2803 1798 2803 
C 1395 2803 1133 2605 947 2387 
L 947 4442 
L 474 4442 
L 474 0 
L 960 0 
L 960 1549 
C 960 1952 1114 2413 1549 2413 
C 2112 2413 2131 2035 2131 1818 
L 2131 0 
L 2618 0 
z
" transform="scale(0.015625)"/>
       </defs>
       <use xlink:href="#LMSans17-Regular-4e"/>
       <use xlink:href="#LMSans17-Regular-67" x="66.299988"/>
       <use xlink:href="#LMSans17-Regular-6e" x="113.299973"/>
       <use xlink:href="#LMSans17-Regular-33" x="161.699966"/>
       <use xlink:href="#LMSans17-Regular-20" x="208.699951"/>
       <use xlink:href="#LMSans17-Regular-68" x="239.999939"/>
       <use xlink:href="#LMSans17-Regular-69" x="288.399933"/>
       <use xlink:href="#LMSans17-Regular-67" x="310.699921"/>
       <use xlink:href="#LMSans17-Regular-68" x="357.699905"/>
       <use xlink:href="#LMSans17-Regular-20" x="406.099899"/>
       <use xlink:href="#LMSans17-Regular-45" x="437.399887"/>
       <use xlink:href="#LMSans17-Regular-50" x="493.499878"/>
      </g>
     </g>
    </g>
    <g id="ytick_4">
     <g id="line2d_10">
      <g>
       <use xlink:href="#m778ba7e591" x="240.185455" y="73.182278" style="stroke: #000000; stroke-width: 0.8"/>
      </g>
     </g>
     <g id="text_15">
      <!-- Pre-endocrine -->
      <g transform="translate(190.225455 75.958528)scale(0.08 -0.08)">
       <defs>
        <path id="LMSans17-Regular-72" d="M 1958 2381 
L 1958 2803 
C 1549 2797 1165 2592 934 2259 
L 934 2771 
L 480 2771 
L 480 0 
L 954 0 
L 954 1363 
C 954 1965 1395 2368 1958 2381 
z
" transform="scale(0.015625)"/>
        <path id="LMSans17-Regular-2d" d="M 1664 1190 
L 1664 1562 
L 64 1562 
L 64 1190 
L 1664 1190 
z
" transform="scale(0.015625)"/>
       </defs>
       <use xlink:href="#LMSans17-Regular-50"/>
       <use xlink:href="#LMSans17-Regular-72" x="59.999985"/>
       <use xlink:href="#LMSans17-Regular-65" x="91.999969"/>
       <use xlink:href="#LMSans17-Regular-2d" x="133.799957"/>
       <use xlink:href="#LMSans17-Regular-65" x="165.099945"/>
       <use xlink:href="#LMSans17-Regular-6e" x="206.899933"/>
       <use xlink:href="#LMSans17-Regular-64" x="255.299927"/>
       <use xlink:href="#LMSans17-Regular-6f" x="303.699921"/>
       <use xlink:href="#LMSans17-Regular-63" x="350.699905"/>
       <use xlink:href="#LMSans17-Regular-72" x="392.499893"/>
       <use xlink:href="#LMSans17-Regular-69" x="424.499878"/>
       <use xlink:href="#LMSans17-Regular-6e" x="446.799866"/>
       <use xlink:href="#LMSans17-Regular-65" x="495.19986"/>
      </g>
     </g>
    </g>
    <g id="ytick_5">
     <g id="line2d_11">
      <g>
       <use xlink:href="#m778ba7e591" x="240.185455" y="87.217722" style="stroke: #000000; stroke-width: 0.8"/>
      </g>
     </g>
     <g id="text_16">
      <!-- Beta -->
      <g transform="translate(218.506705 89.993972)scale(0.08 -0.08)">
       <defs>
        <path id="LMSans17-Regular-42" d="M 3667 1203 
C 3667 1690 3251 2182 2502 2323 
C 3334 2566 3501 3053 3501 3328 
C 3501 3904 2874 4442 1997 4442 
L 570 4442 
L 570 0 
L 2163 0 
C 3034 0 3667 576 3667 1203 
z
M 3002 3322 
C 3002 2938 2592 2502 1766 2502 
L 1088 2502 
L 1088 4083 
L 1824 4083 
C 2483 4083 3002 3744 3002 3322 
z
M 3162 1210 
C 3162 774 2694 358 1984 358 
L 1088 358 
L 1088 2112 
L 1939 2112 
C 2630 2112 3162 1683 3162 1210 
z
" transform="scale(0.015625)"/>
       </defs>
       <use xlink:href="#LMSans17-Regular-42"/>
       <use xlink:href="#LMSans17-Regular-65" x="62.599991"/>
       <use xlink:href="#LMSans17-Regular-74" x="104.399979"/>
       <use xlink:href="#LMSans17-Regular-61" x="138.399963"/>
      </g>
     </g>
    </g>
    <g id="ytick_6">
     <g id="line2d_12">
      <g>
       <use xlink:href="#m778ba7e591" x="240.185455" y="101.253165" style="stroke: #000000; stroke-width: 0.8"/>
      </g>
     </g>
     <g id="text_17">
      <!-- Alpha -->
      <g transform="translate(215.049205 104.029415)scale(0.08 -0.08)">
       <defs>
        <path id="LMSans17-Regular-41" d="M 3827 0 
L 2272 4442 
L 1722 4442 
L 166 0 
L 653 0 
L 1101 1293 
L 2816 1293 
L 3270 0 
L 3827 0 
z
M 2694 1651 
L 1222 1651 
C 1530 2547 1914 3661 1958 3949 
L 1965 3949 
C 2010 3686 2138 3302 2246 2976 
L 2694 1651 
z
" transform="scale(0.015625)"/>
       </defs>
       <use xlink:href="#LMSans17-Regular-41"/>
       <use xlink:href="#LMSans17-Regular-6c" x="62.499985"/>
       <use xlink:href="#LMSans17-Regular-70" x="84.799973"/>
       <use xlink:href="#LMSans17-Regular-68" x="133.199966"/>
       <use xlink:href="#LMSans17-Regular-61" x="181.59996"/>
      </g>
     </g>
    </g>
    <g id="ytick_7">
     <g id="line2d_13">
      <g>
       <use xlink:href="#m778ba7e591" x="240.185455" y="115.288608" style="stroke: #000000; stroke-width: 0.8"/>
      </g>
     </g>
     <g id="text_18">
      <!-- Delta -->
      <g transform="translate(216.306705 118.064858)scale(0.08 -0.08)">
       <use xlink:href="#LMSans17-Regular-44"/>
       <use xlink:href="#LMSans17-Regular-65" x="67.799988"/>
       <use xlink:href="#LMSans17-Regular-6c" x="109.599976"/>
       <use xlink:href="#LMSans17-Regular-74" x="131.899963"/>
       <use xlink:href="#LMSans17-Regular-61" x="165.899948"/>
      </g>
     </g>
    </g>
    <g id="ytick_8">
     <g id="line2d_14">
      <g>
       <use xlink:href="#m778ba7e591" x="240.185455" y="129.324051" style="stroke: #000000; stroke-width: 0.8"/>
      </g>
     </g>
     <g id="text_19">
      <!-- Epsilon -->
      <g transform="translate(210.745455 132.100301)scale(0.08 -0.08)">
       <use xlink:href="#LMSans17-Regular-45"/>
       <use xlink:href="#LMSans17-Regular-70" x="56.099991"/>
       <use xlink:href="#LMSans17-Regular-73" x="104.499985"/>
       <use xlink:href="#LMSans17-Regular-69" x="140.499969"/>
       <use xlink:href="#LMSans17-Regular-6c" x="162.799957"/>
       <use xlink:href="#LMSans17-Regular-6f" x="185.099945"/>
       <use xlink:href="#LMSans17-Regular-6e" x="232.09993"/>
      </g>
     </g>
    </g>
    <g id="text_20">
     <!-- clusters -->
     <g transform="translate(183.042455 96.69775)rotate(-90)scale(0.096 -0.096)">
      <defs>
       <path id="LMSans10-Bold-63" d="M 2925 320 
C 2925 390 2899 685 2886 768 
C 2886 787 2874 851 2810 851 
C 2784 851 2771 851 2707 787 
C 2598 691 2298 429 1773 429 
C 1107 429 1107 1075 1107 1485 
C 1107 2003 1139 2541 1792 2541 
C 2208 2541 2381 2438 2611 2246 
C 2688 2176 2701 2176 2726 2176 
C 2790 2176 2803 2234 2810 2259 
C 2822 2310 2886 2669 2886 2701 
C 2886 2758 2842 2784 2733 2835 
C 2426 2976 2234 3040 1786 3040 
C 832 3040 237 2592 237 1472 
C 237 410 787 -70 1754 -70 
C 1926 -70 2310 -64 2739 154 
C 2918 250 2925 256 2925 320 
z
" transform="scale(0.015625)"/>
       <path id="LMSans10-Bold-6c" d="M 1242 307 
L 1242 4134 
C 1242 4339 1197 4442 934 4442 
L 698 4442 
C 467 4442 390 4371 390 4134 
L 390 307 
C 390 77 461 0 698 0 
L 934 0 
C 1178 0 1242 83 1242 307 
z
" transform="scale(0.015625)"/>
       <path id="LMSans10-Bold-75" d="M 3200 307 
L 3200 2624 
C 3200 2829 3155 2931 2893 2931 
L 2637 2931 
C 2394 2931 2330 2848 2330 2624 
L 2330 1107 
C 2330 685 2106 320 1651 320 
C 1293 320 1254 410 1254 749 
L 1254 2624 
C 1254 2829 1210 2931 947 2931 
L 691 2931 
C 461 2931 384 2861 384 2624 
L 384 806 
C 384 122 755 -70 1421 -70 
C 1594 -70 2048 -70 2349 474 
L 2349 307 
C 2349 102 2394 0 2656 0 
L 2893 0 
C 3136 0 3200 83 3200 307 
z
" transform="scale(0.015625)"/>
       <path id="LMSans10-Bold-65" d="M 3066 1664 
C 3066 2490 2682 3040 1728 3040 
C 704 3040 198 2464 198 1491 
C 198 442 806 -70 1811 -70 
C 2054 -70 2419 -38 2842 173 
C 2982 243 3027 262 3027 339 
C 3027 384 3008 570 3002 621 
C 2976 819 2970 826 2912 826 
C 2886 826 2874 826 2803 762 
C 2426 435 2042 390 1837 390 
C 1114 390 1037 960 1018 1370 
L 2758 1370 
C 2906 1370 3066 1376 3066 1664 
z
M 2355 1709 
L 1024 1709 
C 1043 2099 1171 2579 1728 2579 
C 2240 2579 2336 2208 2355 1709 
z
" transform="scale(0.015625)"/>
      </defs>
      <use xlink:href="#LMSans10-Bold-63"/>
      <use xlink:href="#LMSans10-Bold-6c" x="48.899994"/>
      <use xlink:href="#LMSans10-Bold-75" x="74.499985"/>
      <use xlink:href="#LMSans10-Bold-73" x="130.599976"/>
      <use xlink:href="#LMSans10-Bold-74" x="172.799973"/>
      <use xlink:href="#LMSans10-Bold-65" x="213.199966"/>
      <use xlink:href="#LMSans10-Bold-72" x="264.299957"/>
      <use xlink:href="#LMSans10-Bold-73" x="301.499954"/>
     </g>
    </g>
   </g>
   <g id="patch_26">
    <path d="M 240.185455 135.64 
L 240.185455 24.76 
" style="fill: none; stroke: #000000; stroke-width: 0.8; stroke-linejoin: miter; stroke-linecap: square"/>
   </g>
   <g id="patch_27">
    <path d="M 493.821818 135.64 
L 493.821818 24.76 
" style="fill: none; stroke: #000000; stroke-width: 0.8; stroke-linejoin: miter; stroke-linecap: square"/>
   </g>
   <g id="patch_28">
    <path d="M 240.185455 135.64 
L 493.821818 135.64 
" style="fill: none; stroke: #000000; stroke-width: 0.8; stroke-linejoin: miter; stroke-linecap: square"/>
   </g>
   <g id="patch_29">
    <path d="M 240.185455 24.76 
L 493.821818 24.76 
" style="fill: none; stroke: #000000; stroke-width: 0.8; stroke-linejoin: miter; stroke-linecap: square"/>
   </g>
   <g id="text_21">
    <!-- 88% -->
    <g style="fill: #ffffff" transform="translate(342.743029 33.075949)scale(0.08 -0.08)">
     <use xlink:href="#LMSans10-Bold-38"/>
     <use xlink:href="#LMSans10-Bold-38" x="54.999985"/>
     <use xlink:href="#LMSans10-Bold-25" x="109.999969"/>
    </g>
   </g>
   <g id="text_22">
    <!-- 88% -->
    <g style="fill: #ffffff" transform="translate(342.743029 47.111392)scale(0.08 -0.08)">
     <use xlink:href="#LMSans10-Bold-38"/>
     <use xlink:href="#LMSans10-Bold-38" x="54.999985"/>
     <use xlink:href="#LMSans10-Bold-25" x="109.999969"/>
    </g>
   </g>
   <g id="text_23">
    <!-- 85% -->
    <g style="fill: #ffffff" transform="translate(342.743029 61.146835)scale(0.08 -0.08)">
     <defs>
      <path id="LMSans10-Bold-35" d="M 3162 1414 
C 3162 2259 2810 2886 1830 2886 
C 1670 2886 1517 2861 1363 2803 
L 1363 3802 
L 2618 3802 
C 2918 3802 2925 3949 2925 4122 
C 2925 4288 2925 4442 2618 4442 
L 838 4442 
C 634 4442 531 4403 531 4147 
L 531 2189 
C 531 1901 678 1894 851 1894 
C 1018 1894 1075 1894 1165 2048 
C 1318 2298 1536 2426 1805 2426 
C 2221 2426 2221 1939 2221 1440 
C 2221 947 2221 461 1549 461 
C 1350 461 915 518 659 1024 
C 640 1062 621 1101 576 1101 
C 525 1101 512 1069 474 1018 
C 384 870 237 646 237 602 
C 237 550 653 -141 1568 -141 
C 2598 -141 3162 378 3162 1414 
z
" transform="scale(0.015625)"/>
     </defs>
     <use xlink:href="#LMSans10-Bold-38"/>
     <use xlink:href="#LMSans10-Bold-35" x="54.999985"/>
     <use xlink:href="#LMSans10-Bold-25" x="109.999969"/>
    </g>
   </g>
   <g id="text_24">
    <!-- 79% -->
    <g style="fill: #ffffff" transform="translate(342.743029 75.182278)scale(0.08 -0.08)">
     <defs>
      <path id="LMSans10-Bold-39" d="M 3219 2278 
C 3219 2963 3213 4582 1760 4582 
C 1363 4582 941 4512 608 4102 
C 339 3750 294 3430 294 2938 
C 294 2534 307 2170 582 1805 
C 838 1472 1133 1376 1542 1376 
C 2016 1376 2240 1754 2323 1952 
C 2317 1894 2323 1773 2304 1498 
C 2272 1107 2157 461 1453 461 
C 1254 461 1069 512 896 672 
C 864 710 845 723 813 723 
C 762 723 749 691 717 640 
C 595 435 506 288 506 250 
C 506 198 838 -141 1466 -141 
C 3219 -141 3219 1702 3219 2278 
z
M 2317 2848 
C 2317 2758 2317 1837 1702 1837 
C 1190 1837 1190 2298 1190 2931 
C 1190 3552 1190 4013 1773 4013 
C 2214 4013 2317 3520 2317 2848 
z
" transform="scale(0.015625)"/>
     </defs>
     <use xlink:href="#LMSans10-Bold-37"/>
     <use xlink:href="#LMSans10-Bold-39" x="54.999985"/>
     <use xlink:href="#LMSans10-Bold-25" x="109.999969"/>
    </g>
   </g>
   <g id="text_25">
    <!-- 79% -->
    <g style="fill: #ffffff" transform="translate(342.743029 89.217722)scale(0.08 -0.08)">
     <use xlink:href="#LMSans10-Bold-37"/>
     <use xlink:href="#LMSans10-Bold-39" x="54.999985"/>
     <use xlink:href="#LMSans10-Bold-25" x="109.999969"/>
    </g>
   </g>
   <g id="text_26">
    <!-- 80% -->
    <g style="fill: #ffffff" transform="translate(342.743029 103.253165)scale(0.08 -0.08)">
     <defs>
      <path id="LMSans10-Bold-30" d="M 3238 2195 
C 3238 3072 3238 4582 1760 4582 
C 275 4582 275 3085 275 2195 
C 275 1318 275 -141 1754 -141 
C 3238 -141 3238 1306 3238 2195 
z
M 2368 2285 
C 2368 1920 2368 1421 2323 1069 
C 2304 902 2234 320 1754 320 
C 1280 320 1210 909 1190 1082 
C 1146 1421 1146 2022 1146 2285 
C 1146 2662 1146 3072 1184 3386 
C 1203 3558 1267 4122 1754 4122 
C 2227 4122 2304 3584 2323 3456 
C 2368 3130 2368 2624 2368 2285 
z
" transform="scale(0.015625)"/>
     </defs>
     <use xlink:href="#LMSans10-Bold-38"/>
     <use xlink:href="#LMSans10-Bold-30" x="54.999985"/>
     <use xlink:href="#LMSans10-Bold-25" x="109.999969"/>
    </g>
   </g>
   <g id="text_27">
    <!-- 81% -->
    <g style="fill: #ffffff" transform="translate(342.743029 117.288608)scale(0.08 -0.08)">
     <use xlink:href="#LMSans10-Bold-38"/>
     <use xlink:href="#LMSans10-Bold-31" x="54.999985"/>
     <use xlink:href="#LMSans10-Bold-25" x="109.999969"/>
    </g>
   </g>
   <g id="text_28">
    <!-- 82% -->
    <g style="fill: #ffffff" transform="translate(342.743029 131.324051)scale(0.08 -0.08)">
     <defs>
      <path id="LMSans10-Bold-32" d="M 3162 307 
L 3162 384 
C 3162 486 3162 608 3027 666 
C 2982 691 2778 691 2650 691 
L 2214 685 
L 1178 685 
L 2022 1485 
C 2118 1568 2362 1766 2458 1856 
C 2810 2202 3162 2541 3162 3110 
C 3162 3891 2598 4582 1658 4582 
C 1434 4582 1069 4550 762 4301 
C 704 4256 410 4026 294 3597 
L 614 3187 
C 653 3136 672 3110 717 3110 
C 774 3110 787 3155 806 3232 
C 934 3674 1152 3942 1562 3942 
C 2061 3942 2266 3488 2266 3098 
C 2266 2688 2022 2259 1638 1850 
L 416 544 
C 352 480 352 467 352 358 
L 352 307 
C 352 77 422 0 659 0 
L 2854 0 
C 3098 0 3162 83 3162 307 
z
" transform="scale(0.015625)"/>
     </defs>
     <use xlink:href="#LMSans10-Bold-38"/>
     <use xlink:href="#LMSans10-Bold-32" x="54.999985"/>
     <use xlink:href="#LMSans10-Bold-25" x="109.999969"/>
    </g>
   </g>
   <g id="text_29">
    <!-- 12% -->
    <g style="fill: #ffffff" transform="translate(469.561218 33.075949)scale(0.08 -0.08)">
     <use xlink:href="#LMSans10-Bold-31"/>
     <use xlink:href="#LMSans10-Bold-32" x="54.999985"/>
     <use xlink:href="#LMSans10-Bold-25" x="109.999969"/>
    </g>
   </g>
   <g id="text_30">
    <!-- 12% -->
    <g style="fill: #ffffff" transform="translate(469.561218 47.111392)scale(0.08 -0.08)">
     <use xlink:href="#LMSans10-Bold-31"/>
     <use xlink:href="#LMSans10-Bold-32" x="54.999985"/>
     <use xlink:href="#LMSans10-Bold-25" x="109.999969"/>
    </g>
   </g>
   <g id="text_31">
    <!-- 15% -->
    <g style="fill: #ffffff" transform="translate(469.561218 61.146835)scale(0.08 -0.08)">
     <use xlink:href="#LMSans10-Bold-31"/>
     <use xlink:href="#LMSans10-Bold-35" x="54.999985"/>
     <use xlink:href="#LMSans10-Bold-25" x="109.999969"/>
    </g>
   </g>
   <g id="text_32">
    <!-- 21% -->
    <g style="fill: #ffffff" transform="translate(469.561218 75.182278)scale(0.08 -0.08)">
     <use xlink:href="#LMSans10-Bold-32"/>
     <use xlink:href="#LMSans10-Bold-31" x="54.999985"/>
     <use xlink:href="#LMSans10-Bold-25" x="109.999969"/>
    </g>
   </g>
   <g id="text_33">
    <!-- 21% -->
    <g style="fill: #ffffff" transform="translate(469.561218 89.217722)scale(0.08 -0.08)">
     <use xlink:href="#LMSans10-Bold-32"/>
     <use xlink:href="#LMSans10-Bold-31" x="54.999985"/>
     <use xlink:href="#LMSans10-Bold-25" x="109.999969"/>
    </g>
   </g>
   <g id="text_34">
    <!-- 20% -->
    <g style="fill: #ffffff" transform="translate(469.561218 103.253165)scale(0.08 -0.08)">
     <use xlink:href="#LMSans10-Bold-32"/>
     <use xlink:href="#LMSans10-Bold-30" x="54.999985"/>
     <use xlink:href="#LMSans10-Bold-25" x="109.999969"/>
    </g>
   </g>
   <g id="text_35">
    <!-- 19% -->
    <g style="fill: #ffffff" transform="translate(469.561218 117.288608)scale(0.08 -0.08)">
     <use xlink:href="#LMSans10-Bold-31"/>
     <use xlink:href="#LMSans10-Bold-39" x="54.999985"/>
     <use xlink:href="#LMSans10-Bold-25" x="109.999969"/>
    </g>
   </g>
   <g id="text_36">
    <!-- 18% -->
    <g style="fill: #ffffff" transform="translate(469.561218 131.324051)scale(0.08 -0.08)">
     <use xlink:href="#LMSans10-Bold-31"/>
     <use xlink:href="#LMSans10-Bold-38" x="54.999985"/>
     <use xlink:href="#LMSans10-Bold-25" x="109.999969"/>
    </g>
   </g>
   <g id="legend_2">
    <g id="patch_30">
     <path d="M 245.785455 20.76 
L 359.290455 20.76 
Q 360.890455 20.76 360.890455 19.16 
L 360.890455 8.8 
Q 360.890455 7.2 359.290455 7.2 
L 245.785455 7.2 
Q 244.185455 7.2 244.185455 8.8 
L 244.185455 19.16 
Q 244.185455 20.76 245.785455 20.76 
z
" style="fill: #ffffff; opacity: 0.8; stroke: #cccccc; stroke-linejoin: miter"/>
    </g>
    <g id="patch_31">
     <path d="M 247.385455 16 
L 263.385455 16 
L 263.385455 10.4 
L 247.385455 10.4 
z
" style="fill: #6b6ecf"/>
    </g>
    <g id="text_37">
     <!-- spliced -->
     <g transform="translate(269.785455 16)scale(0.08 -0.08)">
      <use xlink:href="#LMSans17-Regular-73"/>
      <use xlink:href="#LMSans17-Regular-70" x="35.999985"/>
      <use xlink:href="#LMSans17-Regular-6c" x="84.399979"/>
      <use xlink:href="#LMSans17-Regular-69" x="106.699966"/>
      <use xlink:href="#LMSans17-Regular-63" x="128.999954"/>
      <use xlink:href="#LMSans17-Regular-65" x="170.799942"/>
      <use xlink:href="#LMSans17-Regular-64" x="212.59993"/>
     </g>
    </g>
    <g id="patch_32">
     <path d="M 306.665455 16 
L 322.665455 16 
L 322.665455 10.4 
L 306.665455 10.4 
z
" style="fill: #ad494a"/>
    </g>
    <g id="text_38">
     <!-- unspliced -->
     <g transform="translate(329.065455 16)scale(0.08 -0.08)">
      <use xlink:href="#LMSans17-Regular-75"/>
      <use xlink:href="#LMSans17-Regular-6e" x="48.399994"/>
      <use xlink:href="#LMSans17-Regular-73" x="96.799988"/>
      <use xlink:href="#LMSans17-Regular-70" x="132.799973"/>
      <use xlink:href="#LMSans17-Regular-6c" x="181.199966"/>
      <use xlink:href="#LMSans17-Regular-69" x="203.499954"/>
      <use xlink:href="#LMSans17-Regular-63" x="225.799942"/>
      <use xlink:href="#LMSans17-Regular-65" x="267.59993"/>
      <use xlink:href="#LMSans17-Regular-64" x="309.399918"/>
     </g>
    </g>
   </g>
  </g>
 </g>
 <defs>
  <clipPath id="p7d72441385">
   <rect x="240.185455" y="24.76" width="253.636364" height="110.88"/>
  </clipPath>
 </defs>
</svg>
